<svg xmlns="http://www.w3.org/2000/svg" xmlns:xlink="http://www.w3.org/1999/xlink" id="Capa_1" x="0px" y="0px" viewBox="0 0 300 300" style="enable-background:new 0 0 300 300;" xml:space="preserve"><style type="text/css">	.st0{fill:#141D32;}	.st1{fill:#18A543;}</style><g>	<g>		<path class="st0" d="M68.8,160.9c-5.9,0-11.2-0.9-15.6-2.6s-8-4.2-10.5-7.5c-2.5-3.2-3.8-7.1-3.8-11.4c0-4.3,1.3-8,3.9-11   c2.5-3.1,6-5.4,10.5-6.9c4.4-1.6,9.6-2.4,15.5-2.4s11,0.8,15.5,2.4c4.4,1.6,8,3.9,10.5,6.9c2.5,3.1,3.8,6.7,3.8,10.9   c0,4.3-1.3,8.2-3.8,11.4c-2.5,3.2-5.9,5.7-10.5,7.5C80,160.1,74.8,160.9,68.8,160.9z M68.8,128.5c-5.2,0-10-0.8-14.1-2.3   s-7.4-3.6-9.7-6.5c-2.3-2.8-3.5-6.3-3.5-10.3c0-4.1,1.1-7.5,3.5-10.5c2.3-3,5.6-5.2,9.7-6.9s8.9-2.5,14.2-2.5   c5.5,0,10.1,0.8,14.2,2.5c4.1,1.7,7.3,4,9.6,6.9s3.5,6.5,3.5,10.5s-1.1,7.4-3.5,10.3c-2.4,2.8-5.5,5-9.6,6.5   C79,127.9,74.3,128.5,68.8,128.5z M68.8,147.3c3.2,0,5.6-0.8,7.5-2.3c1.8-1.5,2.8-3.6,2.8-6.3s-0.9-4.7-2.8-6.3   c-1.8-1.5-4.3-2.3-7.5-2.3c-3.2,0-5.6,0.8-7.5,2.3c-1.8,1.5-2.8,3.6-2.8,6.3c0,2.7,0.9,4.8,2.8,6.3   C63.3,146.5,65.8,147.3,68.8,147.3z M68.8,117.6c2.4,0,4.4-0.7,5.9-1.9c1.5-1.3,2.3-3.1,2.3-5.2c0-2.3-0.8-4.1-2.4-5.2   c-1.6-1.3-3.5-1.8-5.9-1.8s-4.3,0.6-5.8,1.8c-1.5,1.3-2.3,3.1-2.3,5.4s0.8,4,2.3,5.2C64.5,116.9,66.4,117.6,68.8,117.6z"></path>		<path class="st0" d="M133.2,160.9c-5.9,0-11-1.4-15.6-4.2c-4.6-2.7-8.1-6.8-10.7-12.2c-2.6-5.4-3.9-11.8-3.9-19.4   c0-7.5,1.3-13.9,3.9-19.4c2.6-5.4,6.2-9.5,10.7-12.2c4.6-2.7,9.8-4.2,15.6-4.2c5.8,0,11,1.4,15.6,4.2c4.6,2.7,8.2,6.8,10.7,12.2   c2.6,5.4,3.9,11.8,3.9,19.4c0,7.5-1.3,13.9-3.9,19.4c-2.6,5.4-6.2,9.5-10.7,12.2C144.2,159.5,139,160.9,133.2,160.9z M133.2,145.1   c2.1,0,4-0.7,5.6-1.9c1.6-1.3,2.8-3.4,3.8-6.3c0.9-3,1.4-6.7,1.4-11.5c0-4.8-0.5-8.7-1.4-11.6c-0.9-2.8-2.2-5-3.8-6.3   c-1.6-1.3-3.4-1.9-5.6-1.9c-2.2,0-4,0.7-5.6,1.9c-1.6,1.3-2.8,3.4-3.9,6.3c-0.9,2.8-1.4,6.7-1.4,11.6c0,4.8,0.5,8.7,1.4,11.5   c0.9,3,2.2,5,3.9,6.3C129.3,144.4,131.1,145.1,133.2,145.1z"></path>		<path class="st0" d="M184.6,128.1c-3.4,0-6.4-0.8-9.1-2.3c-2.6-1.5-4.7-3.6-6.3-6.6c-1.5-2.8-2.3-6.3-2.3-10.1s0.8-7.3,2.3-10.1   c1.5-2.8,3.5-5,6.3-6.6c2.6-1.5,5.7-2.3,9.1-2.3c3.4,0,6.4,0.8,9.1,2.3c2.6,1.5,4.8,3.8,6.3,6.6c1.5,2.8,2.3,6.3,2.3,10.1   s-0.8,7.3-2.3,10.1c-1.5,2.8-3.6,5-6.3,6.6C191.1,127.4,188,128.1,184.6,128.1z M178.4,159.5L225.2,91h14l-46.8,68.6H178.4z    M184.6,118.7c1.6,0,3-0.8,4.1-2.3c1.1-1.5,1.7-4,1.7-7.4c0-3.4-0.6-5.9-1.7-7.4s-2.5-2.3-4.1-2.3c-1.6,0-3,0.8-4,2.3   c-1.1,1.5-1.7,4-1.7,7.4c0,3.4,0.6,5.9,1.7,7.4C181.7,118.1,183,118.7,184.6,118.7z M233,160.4c-3.3,0-6.4-0.8-9-2.3   c-2.7-1.5-4.8-3.6-6.3-6.6c-1.5-2.8-2.3-6.3-2.3-10.1c0-3.9,0.8-7.3,2.3-10.1s3.6-5,6.3-6.6c2.7-1.5,5.7-2.3,9-2.3   c3.4,0,6.4,0.8,9.1,2.3s4.8,3.8,6.3,6.6s2.2,6.3,2.2,10.1c0,3.9-0.7,7.3-2.2,10.1c-1.5,2.8-3.5,5-6.3,6.6   C239.5,159.6,236.4,160.4,233,160.4z M233,151.1c1.6,0,3-0.8,4.1-2.3s1.7-4,1.7-7.4c0-3.4-0.6-5.9-1.7-7.4s-2.5-2.3-4.1-2.3   c-1.6,0-3,0.8-4.1,2.3c-1.1,1.5-1.7,4-1.7,7.4c0,3.4,0.6,5.9,1.7,7.4C230.1,150.4,231.4,151.1,233,151.1z"></path>	</g></g><g>	<g>		<g>			<path class="st1" d="M54.8,203.4c-2.1,0-3.9-0.2-5.7-0.7c-1.8-0.5-3.3-1.1-4.4-1.8l2.3-5c1,0.7,2.3,1.3,3.8,1.7    c1.4,0.5,2.8,0.7,4.2,0.7c0.9,0,1.7-0.1,2.3-0.2c0.6-0.1,1-0.3,1.3-0.7c0.2-0.3,0.3-0.7,0.3-1c0-0.6-0.2-0.9-0.8-1.3    c-0.5-0.3-1.1-0.6-1.9-0.8c-0.8-0.2-1.7-0.5-2.6-0.6s-1.9-0.5-3-0.8c-1-0.3-1.9-0.8-2.7-1.3c-0.8-0.6-1.5-1.3-1.9-2.1    c-0.5-0.8-0.7-1.9-0.7-3.2c0-1.4,0.3-2.7,1.1-3.9c0.8-1.1,1.9-2.2,3.5-2.8c1.6-0.7,3.5-1,5.9-1c1.6,0,3.2,0.2,4.7,0.6    c1.5,0.3,2.8,0.9,4,1.6l-2.1,5c-1.1-0.7-2.3-1.1-3.4-1.4s-2.2-0.5-3.3-0.5c-0.9,0-1.7,0.1-2.3,0.3c-0.6,0.2-1,0.5-1.3,0.8    c-0.2,0.3-0.3,0.7-0.3,1c0,0.6,0.2,1,0.8,1.3c0.5,0.3,1.1,0.6,1.9,0.8c0.8,0.2,1.7,0.3,2.6,0.6s1.9,0.5,3,0.8    c0.9,0.3,1.8,0.7,2.6,1.3c0.8,0.6,1.5,1.1,1.9,2.1c0.5,0.8,0.8,1.9,0.8,3.2c0,1.4-0.3,2.7-1.1,3.9s-1.9,2.2-3.5,2.8    S57.2,203.4,54.8,203.4z"></path>			<path class="st1" d="M75.4,203.1c-1.5,0-2.8-0.3-4.1-0.9c-1.3-0.6-2.2-1.5-2.8-2.8c-0.7-1.3-1-2.8-1-4.9v-10.4H74v9.3    c0,1.5,0.2,2.5,0.8,3.1c0.6,0.6,1.3,0.9,2.3,0.9c0.7,0,1.3-0.1,1.8-0.5c0.6-0.3,0.9-0.8,1.3-1.5c0.3-0.7,0.5-1.5,0.5-2.5v-9h6.5    v18.7h-6.2v-5.2l1.3,1.5c-0.7,1.4-1.6,2.4-2.8,3.1C78.2,202.8,76.9,203.1,75.4,203.1z"></path>			<path class="st1" d="M90.8,202.9v-25.5h6.5v10l-0.3,6.2l0.1,6.2v3.2H90.8z M102.6,203.1c-1.7,0-3.1-0.3-4.2-1    c-1.1-0.7-1.9-1.7-2.5-3.2c-0.6-1.4-0.8-3.2-0.8-5.5c0-2.3,0.3-4,0.9-5.5c0.6-1.4,1.5-2.5,2.5-3.2c1.1-0.7,2.5-1,4.1-1    c1.7,0,3.2,0.3,4.7,1.1c1.4,0.8,2.5,1.9,3.3,3.3c0.8,1.5,1.3,3.2,1.3,5.1s-0.5,3.6-1.3,5.1c-0.8,1.5-1.9,2.5-3.3,3.3    C105.9,202.6,104.3,203.1,102.6,203.1z M101.2,198c0.7,0,1.4-0.2,1.9-0.6c0.6-0.3,1-0.9,1.4-1.5c0.3-0.7,0.6-1.5,0.6-2.4    c0-1-0.2-1.8-0.6-2.4c-0.3-0.7-0.8-1.1-1.4-1.5c-0.6-0.3-1.3-0.6-1.9-0.6s-1.4,0.2-1.9,0.6c-0.6,0.3-1,0.8-1.4,1.5    c-0.3,0.7-0.6,1.5-0.6,2.4s0.2,1.7,0.6,2.4c0.3,0.7,0.8,1.1,1.4,1.5C99.7,197.8,100.4,198,101.2,198z"></path>			<path class="st1" d="M119.2,202.9l-7.6-18.7h6.7l6.2,15.6H121l6.4-15.6h6.2l-7.6,18.7H119.2z"></path>			<path class="st1" d="M144.6,203.1c-2.3,0-4.1-0.5-5.8-1.3c-1.6-0.8-3-1.9-3.9-3.4c-0.9-1.5-1.4-3.1-1.4-4.9c0-1.9,0.5-3.5,1.4-5    c0.9-1.5,2.1-2.6,3.6-3.4c1.6-0.8,3.3-1.3,5.2-1.3c1.8,0,3.5,0.3,5,1.1c1.5,0.8,2.7,1.8,3.6,3.3c0.9,1.5,1.4,3.2,1.4,5.2    c0,0.2,0,0.5,0,0.8c0,0.3,0,0.6-0.1,0.8h-14.8v-3.4h11.3l-2.4,1c0-0.8-0.1-1.6-0.5-2.2s-0.8-1.1-1.4-1.5s-1.3-0.6-2.1-0.6    c-0.8,0-1.5,0.2-2.1,0.6c-0.6,0.3-1,0.8-1.4,1.5c-0.3,0.7-0.5,1.4-0.5,2.2v1c0,0.9,0.2,1.7,0.6,2.4c0.3,0.7,0.9,1.1,1.6,1.5    c0.7,0.3,1.6,0.6,2.5,0.6c0.9,0,1.7-0.1,2.4-0.3c0.7-0.2,1.3-0.7,1.9-1.3l3.4,3.6c-0.9,0.9-1.9,1.7-3.3,2.2    C147.9,202.9,146.3,203.1,144.6,203.1z"></path>			<path class="st1" d="M168.3,183.9c1.5,0,2.7,0.3,3.9,0.9c1.1,0.6,2.1,1.5,2.7,2.7c0.7,1.3,1,2.7,1,4.7v10.7h-6.5v-9.6    c0-1.4-0.2-2.3-0.8-3c-0.6-0.6-1.3-0.9-2.2-0.9c-0.7,0-1.4,0.1-1.9,0.5c-0.6,0.3-1,0.8-1.4,1.5c-0.3,0.7-0.5,1.5-0.5,2.5v9h-6.5    v-18.7h6.3v5.4l-1.3-1.6c0.7-1.4,1.7-2.4,3-3.1C165.3,184.2,166.8,183.9,168.3,183.9z"></path>			<path class="st1" d="M188.9,203.1c-2.1,0-4-0.5-5.6-1.3c-1.6-0.8-2.8-1.9-3.8-3.4c-0.9-1.5-1.4-3.1-1.4-5s0.5-3.5,1.4-5    c0.9-1.5,2.2-2.6,3.8-3.4c1.6-0.8,3.4-1.3,5.6-1.3c2.2,0,4,0.5,5.5,1.4c1.5,0.9,2.6,2.2,3.3,3.8l-5,2.6c-0.5-0.9-1-1.5-1.6-1.9    c-0.6-0.5-1.4-0.6-2.1-0.6c-0.8,0-1.5,0.2-2.1,0.6s-1.1,0.8-1.5,1.5c-0.3,0.7-0.6,1.5-0.6,2.4c0,0.9,0.2,1.7,0.6,2.4    c0.3,0.7,0.9,1.1,1.5,1.5s1.3,0.6,2.1,0.6c0.8,0,1.5-0.2,2.1-0.6c0.7-0.5,1.1-1,1.6-1.9l5,2.6c-0.7,1.6-1.7,2.8-3.3,3.8    C192.9,202.7,191.1,203.1,188.9,203.1z"></path>			<path class="st1" d="M202.8,182.2c-1.3,0-2.2-0.3-3-1c-0.7-0.7-1.1-1.5-1.1-2.5s0.3-1.8,1.1-2.5c0.7-0.7,1.7-1,3-1    c1.1,0,2.2,0.3,2.8,0.9c0.7,0.6,1.1,1.4,1.1,2.4c0,1-0.3,1.9-1.1,2.6C204.8,181.7,203.9,182.2,202.8,182.2z M199.5,202.9v-18.7    h6.5v18.7H199.5z"></path>			<path class="st1" d="M219,203.1c-2.1,0-3.9-0.5-5.5-1.3c-1.6-0.8-2.8-1.9-3.8-3.4c-0.9-1.5-1.4-3.1-1.4-5s0.5-3.5,1.4-5    c0.9-1.5,2.2-2.6,3.8-3.4c1.6-0.8,3.4-1.3,5.5-1.3s3.9,0.5,5.5,1.3c1.6,0.8,2.8,1.9,3.8,3.4c0.9,1.5,1.4,3.1,1.4,5    c0,1.8-0.5,3.5-1.4,5c-0.9,1.5-2.2,2.6-3.8,3.4C222.8,202.8,221,203.1,219,203.1z M219,198c0.7,0,1.4-0.2,1.9-0.6    c0.6-0.3,1-0.9,1.4-1.5c0.3-0.7,0.6-1.5,0.6-2.4s-0.2-1.7-0.6-2.4c-0.3-0.7-0.8-1.1-1.4-1.5c-0.6-0.3-1.3-0.6-1.9-0.6    c-0.7,0-1.4,0.2-1.9,0.6c-0.6,0.3-1,0.8-1.4,1.5c-0.3,0.7-0.6,1.5-0.6,2.4s0.2,1.7,0.6,2.4c0.3,0.7,0.8,1.1,1.4,1.5    C217.6,197.8,218.3,198,219,198z M215.5,182l4.6-5.2h6.6l-6.5,5.2H215.5z"></path>			<path class="st1" d="M244,183.9c1.5,0,2.7,0.3,3.9,0.9c1.1,0.6,2.1,1.5,2.7,2.7c0.7,1.3,1,2.7,1,4.7v10.7H245v-9.6    c0-1.4-0.2-2.3-0.8-3c-0.6-0.6-1.3-0.9-2.2-0.9c-0.7,0-1.4,0.1-1.9,0.5c-0.6,0.3-1,0.8-1.4,1.5c-0.3,0.7-0.5,1.5-0.5,2.5v9h-6.5    v-18.7h6.3v5.4l-1.3-1.6c0.7-1.4,1.7-2.4,3-3.1C241.1,184.2,242.4,183.9,244,183.9z"></path>		</g>	</g></g><g>	<g>		<path class="st0" d="M69.1,229.2c-0.8,0-1.6-0.1-2.2-0.5c-0.7-0.3-1.1-0.7-1.5-1.1c-0.3-0.5-0.6-1.1-0.6-1.7   c0-0.7,0.1-1.1,0.5-1.7c0.3-0.5,0.8-0.9,1.5-1.1c0.7-0.2,1.6-0.5,2.7-0.5h3.2v1.7h-3.1c-0.9,0-1.5,0.1-1.8,0.5   c-0.3,0.3-0.5,0.7-0.5,1c0,0.5,0.2,0.8,0.6,1.1c0.3,0.2,0.9,0.5,1.6,0.5c0.7,0,1.3-0.1,1.7-0.5c0.5-0.3,0.9-0.7,1.1-1.3l0.5,1.6   c-0.2,0.7-0.7,1.1-1.4,1.5C70.9,229,70.1,229.2,69.1,229.2z M72.6,229v-2.3l-0.1-0.5v-3.9c0-0.8-0.2-1.4-0.7-1.8   c-0.5-0.5-1.1-0.7-2.2-0.7c-0.6,0-1.3,0.1-1.8,0.3c-0.6,0.2-1.1,0.5-1.6,0.8l-1-1.9c0.6-0.5,1.4-0.8,2.2-1   c0.8-0.2,1.7-0.3,2.6-0.3c1.6,0,2.8,0.3,3.8,1.1c0.9,0.8,1.4,1.9,1.4,3.6v6.6h-2.5V229z"></path>		<path class="st0" d="M81.8,220V218h7.4v2.1H81.8z M83.6,229v-11.7c0-1.1,0.3-2.2,1-2.8c0.7-0.7,1.7-1,3-1c0.5,0,0.9,0,1.3,0.1   c0.5,0.1,0.8,0.2,1,0.5l-0.7,1.9c-0.2-0.1-0.3-0.2-0.7-0.3c-0.2-0.1-0.5-0.1-0.8-0.1c-0.6,0-0.9,0.1-1.3,0.5   c-0.2,0.3-0.5,0.8-0.5,1.4v1.3l0.1,1.1v9.3L83.6,229L83.6,229z"></path>		<path class="st0" d="M95.6,229.2c-1.1,0-2.2-0.2-3.1-0.8c-0.9-0.5-1.6-1.1-2.2-2.1c-0.6-0.9-0.8-1.8-0.8-3c0-1.1,0.2-2.2,0.8-3   c0.6-0.8,1.3-1.5,2.2-2.1c0.9-0.5,1.9-0.8,3.1-0.8c1.1,0,2.2,0.2,3.1,0.8c0.9,0.5,1.6,1.1,2.2,2.1c0.5,0.8,0.8,1.8,0.8,3   c0,1.1-0.2,2.1-0.8,3c-0.6,0.9-1.3,1.5-2.2,2.1C97.9,228.9,96.9,229.2,95.6,229.2z M95.6,227c0.7,0,1.3-0.1,1.7-0.5   c0.5-0.3,0.9-0.7,1.1-1.3c0.3-0.6,0.5-1.1,0.5-1.8c0-0.7-0.1-1.4-0.5-1.8c-0.3-0.5-0.7-0.9-1.1-1.3c-0.5-0.3-1-0.5-1.7-0.5   s-1.1,0.1-1.7,0.5c-0.5,0.3-0.9,0.7-1.1,1.3c-0.3,0.6-0.5,1.1-0.5,1.8c0,0.7,0.1,1.4,0.5,1.8c0.3,0.6,0.7,0.9,1.1,1.3   C94.5,226.8,95,227,95.6,227z"></path>		<path class="st0" d="M110.1,217.7c0.9,0,1.7,0.2,2.4,0.6s1.3,0.9,1.7,1.6c0.5,0.7,0.6,1.7,0.6,2.7v6.4h-2.6v-6   c0-1-0.2-1.7-0.7-2.2c-0.5-0.5-1.1-0.7-1.9-0.7c-0.6,0-1.1,0.1-1.6,0.3c-0.5,0.2-0.8,0.6-1.1,1.1c-0.2,0.5-0.3,1.1-0.3,1.8v5.7   h-2.6v-11.3h2.5v3.1l-0.5-0.9c0.3-0.7,0.9-1.3,1.7-1.7C108.2,218,109,217.7,110.1,217.7z"></path>		<path class="st0" d="M122.4,229.2c-1,0-2.1-0.2-2.8-0.7c-0.9-0.5-1.5-1.1-2.1-2.1c-0.5-0.9-0.7-1.8-0.7-3.1c0-1.1,0.2-2.2,0.7-3   c0.5-0.9,1.1-1.5,2.1-2.1c0.9-0.5,1.8-0.7,2.8-0.7c0.9,0,1.8,0.2,2.5,0.6c0.7,0.3,1.4,1,1.7,1.9c0.5,0.8,0.7,1.9,0.7,3.2   s-0.2,2.4-0.7,3.2c-0.5,0.8-1,1.5-1.7,1.9C124.2,229,123.4,229.2,122.4,229.2z M122.7,227c0.7,0,1.1-0.1,1.7-0.5   c0.5-0.3,0.9-0.7,1.1-1.3c0.3-0.6,0.5-1.1,0.5-1.8c0-0.7-0.1-1.4-0.5-1.8c-0.3-0.6-0.7-0.9-1.1-1.3s-1-0.5-1.7-0.5   c-0.7,0-1.1,0.1-1.7,0.5c-0.5,0.3-0.9,0.7-1.1,1.3c-0.3,0.6-0.5,1.1-0.5,1.8c0,0.7,0.1,1.4,0.5,1.8c0.3,0.6,0.7,0.9,1.1,1.3   C121.5,226.8,122,227,122.7,227z M126.1,229v-2.6l0.1-3l-0.2-3v-6.9h2.6V229L126.1,229L126.1,229z"></path>		<path class="st0" d="M136.6,229.2c-1.1,0-2.2-0.2-3.1-0.8c-0.9-0.5-1.6-1.1-2.2-2.1c-0.6-0.9-0.8-1.8-0.8-3c0-1.1,0.2-2.2,0.8-3   c0.6-0.8,1.3-1.5,2.2-2.1c0.9-0.5,1.9-0.8,3.1-0.8s2.2,0.2,3.1,0.8c0.9,0.5,1.6,1.1,2.2,2.1c0.5,0.8,0.8,1.8,0.8,3   c0,1.1-0.2,2.1-0.8,3c-0.6,0.9-1.3,1.5-2.2,2.1C138.8,228.9,137.7,229.2,136.6,229.2z M136.6,227c0.7,0,1.3-0.1,1.7-0.5   s0.9-0.7,1.1-1.3c0.3-0.6,0.5-1.1,0.5-1.8c0-0.7-0.1-1.4-0.5-1.8c-0.3-0.5-0.7-0.9-1.1-1.3s-1-0.5-1.7-0.5s-1.1,0.1-1.7,0.5   c-0.5,0.3-0.9,0.7-1.1,1.3c-0.3,0.6-0.5,1.1-0.5,1.8c0,0.7,0.1,1.4,0.5,1.8c0.3,0.6,0.7,0.9,1.1,1.3   C135.5,226.8,136,227,136.6,227z"></path>		<path class="st0" d="M150,233.1v-15.3h2.5v2.6l-0.1,3l0.2,3v6.6H150V233.1z M156.2,229.2c-0.9,0-1.7-0.2-2.5-0.6   c-0.7-0.5-1.4-1-1.7-1.9c-0.5-0.8-0.7-1.9-0.7-3.2c0-1.4,0.2-2.4,0.6-3.2c0.3-0.8,1-1.5,1.7-1.9c0.8-0.5,1.6-0.6,2.5-0.6   c1.1,0,2.1,0.2,3,0.7c0.8,0.5,1.5,1.1,2.1,2.1c0.5,0.9,0.8,1.8,0.8,3c0,1.1-0.2,2.2-0.8,3.1c-0.5,0.9-1.1,1.5-2.1,2.1   C158.2,229,157.2,229.2,156.2,229.2z M155.9,227c0.7,0,1.3-0.1,1.7-0.5c0.5-0.3,0.9-0.7,1.1-1.3c0.3-0.6,0.5-1.1,0.5-1.8   c0-0.7-0.1-1.4-0.5-1.8c-0.3-0.6-0.7-0.9-1.1-1.3c-0.5-0.3-1-0.5-1.7-0.5c-0.6,0-1.1,0.1-1.7,0.5c-0.5,0.3-0.9,0.7-1.1,1.3   c-0.3,0.6-0.5,1.1-0.5,1.8c0,0.7,0.1,1.4,0.5,1.8c0.3,0.6,0.7,0.9,1.1,1.3C154.7,226.8,155.3,227,155.9,227z"></path>		<path class="st0" d="M169.2,229.2c-1.3,0-2.3-0.2-3.3-0.8c-0.9-0.5-1.6-1.1-2.2-2.1c-0.6-0.9-0.8-1.8-0.8-3c0-1.1,0.2-2.1,0.8-3   c0.6-0.9,1.1-1.5,2.1-2.1c0.9-0.5,1.8-0.8,3-0.8s2.1,0.2,3,0.7c0.9,0.5,1.5,1.1,2.1,2.1c0.5,0.9,0.7,1.9,0.7,3.1   c0,0.1,0,0.2,0,0.3s0,0.2,0,0.3h-9.3v-1.7h8l-1,0.6c0-0.7-0.1-1.1-0.3-1.7c-0.2-0.5-0.7-0.9-1.1-1.1c-0.5-0.2-1-0.5-1.7-0.5   c-0.7,0-1.1,0.1-1.7,0.5c-0.5,0.2-0.9,0.7-1.1,1.1c-0.2,0.5-0.3,1-0.3,1.7v0.5c0,0.7,0.1,1.3,0.5,1.8c0.3,0.6,0.7,0.9,1.3,1.3   c0.6,0.3,1.3,0.5,1.9,0.5s1.1-0.1,1.7-0.3c0.5-0.2,0.9-0.6,1.4-0.9l1.4,1.6c-0.6,0.6-1.1,1-1.9,1.4   C171,229,170.2,229.2,169.2,229.2z"></path>		<path class="st0" d="M176.6,229v-11.2h2.5v3.1l-0.3-0.9c0.3-0.8,0.8-1.4,1.6-1.7c0.8-0.3,1.6-0.6,2.6-0.6v2.5c-0.1,0-0.2,0-0.3,0   s-0.2,0-0.2,0c-1,0-1.8,0.3-2.4,0.9c-0.6,0.6-0.9,1.5-0.9,2.6v5.4h-2.5V229z"></path>		<path class="st0" d="M189.7,229.2c-1,0-2.1-0.2-2.8-0.7c-0.9-0.5-1.5-1.1-2.1-2.1c-0.5-0.9-0.7-1.8-0.7-3.1c0-1.1,0.2-2.2,0.7-3   c0.5-0.9,1.1-1.5,2.1-2.1c0.9-0.5,1.8-0.7,2.8-0.7c0.9,0,1.8,0.2,2.5,0.6c0.7,0.3,1.4,1,1.7,1.9c0.5,0.8,0.7,1.9,0.7,3.2   s-0.2,2.4-0.7,3.2c-0.5,0.8-1,1.5-1.7,1.9C191.5,229,190.6,229.2,189.7,229.2z M189.9,227c0.7,0,1.1-0.1,1.7-0.5   c0.5-0.3,0.9-0.7,1.1-1.3c0.3-0.6,0.5-1.1,0.5-1.8c0-0.7-0.1-1.4-0.5-1.8c-0.3-0.6-0.7-0.9-1.1-1.3c-0.5-0.3-1-0.5-1.7-0.5   s-1.1,0.1-1.7,0.5c-0.5,0.3-0.9,0.7-1.1,1.3c-0.3,0.6-0.5,1.1-0.5,1.8c0,0.7,0.1,1.4,0.5,1.8c0.3,0.6,0.7,0.9,1.1,1.3   C188.7,226.8,189.3,227,189.9,227z M193.3,229v-2.6l0.1-3l-0.2-3v-6.9h2.6V229L193.3,229L193.3,229z"></path>		<path class="st0" d="M200.2,216c-0.5,0-0.9-0.1-1.3-0.5c-0.3-0.3-0.5-0.7-0.5-1.1c0-0.5,0.1-0.8,0.5-1.1c0.3-0.3,0.7-0.5,1.3-0.5   c0.5,0,0.9,0.1,1.3,0.5c0.3,0.3,0.5,0.7,0.5,1.1c0,0.5-0.1,0.8-0.5,1.1C201.1,215.9,200.7,216,200.2,216z M198.9,229v-11.2h2.6   V229H198.9z"></path>		<path class="st0" d="M209.3,229.2c-1,0-2.1-0.2-2.8-0.7c-0.9-0.5-1.5-1.1-2.1-2.1c-0.5-0.9-0.7-1.8-0.7-3.1c0-1.1,0.2-2.2,0.7-3   c0.5-0.9,1.1-1.5,2.1-2.1c0.9-0.5,1.8-0.7,2.8-0.7c0.9,0,1.8,0.2,2.5,0.6c0.7,0.3,1.4,1,1.7,1.9c0.5,0.8,0.7,1.9,0.7,3.2   s-0.2,2.4-0.7,3.2c-0.5,0.8-1,1.5-1.7,1.9C211.1,229,210.2,229.2,209.3,229.2z M209.6,227c0.7,0,1.1-0.1,1.7-0.5   c0.5-0.3,0.9-0.7,1.1-1.3c0.3-0.6,0.5-1.1,0.5-1.8c0-0.7-0.1-1.4-0.5-1.8c-0.3-0.6-0.7-0.9-1.1-1.3s-1-0.5-1.7-0.5   s-1.1,0.1-1.7,0.5c-0.5,0.3-0.9,0.7-1.1,1.3c-0.3,0.6-0.5,1.1-0.5,1.8c0,0.7,0.1,1.4,0.5,1.8c0.3,0.6,0.7,0.9,1.1,1.3   C208.4,226.8,208.9,227,209.6,227z M213,229v-2.6l0.1-3l-0.2-3v-6.9h2.6V229L213,229L213,229z"></path>		<path class="st0" d="M223.5,229.2c-1.1,0-2.2-0.2-3.1-0.8c-0.9-0.5-1.6-1.1-2.2-2.1c-0.6-0.9-0.8-1.8-0.8-3c0-1.1,0.2-2.2,0.8-3   c0.6-0.8,1.3-1.5,2.2-2.1c0.9-0.5,1.9-0.8,3.1-0.8s2.2,0.2,3.1,0.8c0.9,0.5,1.6,1.1,2.2,2.1c0.5,0.8,0.8,1.8,0.8,3   c0,1.1-0.2,2.1-0.8,3c-0.6,0.9-1.3,1.5-2.2,2.1C225.7,228.9,224.7,229.2,223.5,229.2z M223.5,227c0.7,0,1.3-0.1,1.7-0.5   c0.5-0.3,0.9-0.7,1.1-1.3c0.3-0.6,0.5-1.1,0.5-1.8c0-0.7-0.1-1.4-0.5-1.8c-0.3-0.5-0.7-0.9-1.1-1.3c-0.5-0.3-1-0.5-1.7-0.5   c-0.7,0-1.1,0.1-1.7,0.5c-0.5,0.3-0.9,0.7-1.1,1.3c-0.3,0.6-0.5,1.1-0.5,1.8c0,0.7,0.1,1.4,0.5,1.8c0.3,0.6,0.7,0.9,1.1,1.3   C222.4,226.8,222.8,227,223.5,227z"></path>	</g></g><g>	<g>		<path class="st1" d="M149.6,278.9V297c-41.6,0-79-17.2-105.8-44.9l12.8-13C80,263.6,113,278.9,149.6,278.9"></path>		<path class="st0" d="M149.6,2v18.1c-36.8,0-70,15.4-93.6,40.1L43.2,47.3C70.1,19.4,107.8,2,149.6,2"></path>		<path class="st1" d="M20.3,150.3c0.2,34.5,14,65.8,36.2,88.8l-12.8,13C18.3,225.8,2.4,189.9,2.1,150.4L20.3,150.3z"></path>		<path class="st0" d="M20.3,150.3l-18.1,0.1c0-0.3,0-0.7,0-0.9c0-39.6,15.7-75.6,41.1-102.2l12.8,12.9   c-22.2,23.2-35.8,54.7-35.8,89.3C20.3,149.7,20.3,150.1,20.3,150.3"></path>	</g></g><path class="st1" d="M149.7,278.7v18.2c41.6,0,79-17.2,105.8-45l-12.8-13C219.2,263.4,186.3,278.7,149.7,278.7"></path><path class="st1" d="M149.7,2.1v18.1c36.8,0,70,15.4,93.6,40L256,47.3C229.2,19.4,191.5,2.1,149.7,2.1"></path><path class="st1" d="M279,149.7c-0.2,34.6-14,65.9-36.2,89.2l12.8,13c25.5-26.4,41.3-62.4,41.7-102.1L279,149.7z"></path><path class="st1" d="M279,149.7l18.1,0.1c0-0.3,0-0.7,0-0.9c0-39.4-15.7-75.3-41.1-101.6l-12.8,12.9C265.3,83.3,279,114.5,279,149 C279,149.2,279,149.5,279,149.7"></path></svg>