<?xml version="1.0" encoding="utf-8"?>
<!-- Generator: Adobe Illustrator 26.1.0, SVG Export Plug-In . SVG Version: 6.00 Build 0)  -->
<svg version="1.1" id="Capa_1" xmlns="http://www.w3.org/2000/svg" xmlns:xlink="http://www.w3.org/1999/xlink" x="0px" y="0px"
	 viewBox="0 0 1418.7 193.2" style="enable-background:new 0 0 1418.7 193.2;" xml:space="preserve">
<style type="text/css">
	.st0{fill:#343E3E;}
	.st1{fill:#F2E500;}
	.st2{fill:none;}
	.st3{enable-background:new    ;}
</style>
<g>
	<path class="st0" d="M29.1,179.1c-8.3,0-14.4-2.9-18.2-8.8c-3.8-5.9-4.2-13-1.3-21.3l3.4-9.7h25l-2.2,6.3c-1.2,3.4-1.4,5.7-0.7,6.8
		c0.8,1.2,2.8,1.7,6.2,1.7H141c3.4,0,5.8-0.6,7.3-1.7c1.5-1.2,2.8-3.4,4-6.8l10.1-28.7c1.2-3.6,1.5-5.8,0.8-6.8s-2.8-1.5-6.2-1.5H54
		c-8.3,0-14.4-3-18.2-8.9C32,93.5,31.6,86.4,34.6,78l12.6-35.7c2.9-8.4,8.4-15.5,16.3-21.3c7.9-5.9,16.1-8.8,24.4-8.8h106.6
		c8.4,0,14.4,2.9,18.2,8.8c3.8,5.9,4.2,13,1.3,21.3l-3.4,9.7h-25.3l2.2-6.2c1.2-3.4,1.5-5.7,0.8-6.8c-0.7-1.2-2.7-1.7-6.1-1.7H82.6
		c-3.4,0-5.9,0.6-7.5,1.7c-1.6,1.2-3,3.4-4.1,6.8L60.8,74.5c-1.3,3.6-1.5,5.8-0.7,6.8c0.8,1,2.9,1.5,6.3,1.5h103.2
		c8.4,0,14.4,3,18.2,8.9c3.8,6,4.2,13.1,1.2,21.4l-12.6,35.7c-3,8.4-8.4,15.5-16.3,21.3c-7.9,5.9-16.1,8.8-24.4,8.8L29.1,179.1z"/>
	<path class="st0" d="M215.8,179.1c-7.4,0-12.8-2.6-16.2-7.8c-3.4-5.2-3.8-11.6-1.1-19l33.4-94.8c2.6-7.4,7.5-13.8,14.5-19
		c7.1-5.2,14.3-7.9,21.7-7.8h94.8c7.3,0,12.6,2.6,16.1,7.8c3.5,5.2,3.9,11.6,1.2,19l-33.4,94.8c-2.6,7.4-7.5,13.8-14.6,19
		c-7.1,5.2-14.3,7.9-21.6,7.8H215.8z M226.7,156.8h88.4c3.2,0,5.4-0.5,6.7-1.5c1.3-1,2.5-3.1,3.6-6.1l31.2-88.6c1.1-3,1.3-5,0.7-6.1
		s-2.5-1.5-5.6-1.5h-88.4c-3,0-5.2,0.5-6.6,1.5c-1.4,1-2.6,3.1-3.7,6.1l-31.2,88.6c-1.1,3-1.3,5-0.6,6.1
		C221.9,156.3,223.7,156.8,226.7,156.8L226.7,156.8z"/>
	<path class="st0" d="M360.3,179.1l52.4-148.6h22.3l-44.5,126.3h126.1l-7.9,22.3L360.3,179.1z"/>
	<path class="st0" d="M713.1,179.1l52.3-148.4h136L893.6,53H780.1l-14.3,40.6H857l-8,22.7h-91.3l-14.3,40.6h113.5l-7.8,22.3
		L713.1,179.1z"/>
	<path class="st0" d="M870.9,179.1l52.4-148.4h121.4c7.4,0,12.9,2.6,16.3,7.8s3.9,11.6,1.2,19l-33.4,94.8c-2.6,7.4-7.5,13.8-14.6,19
		c-7.1,5.2-14.4,7.9-21.8,7.8L870.9,179.1z M908.7,156.8h88.4c3.2,0,5.4-0.5,6.7-1.5c1.3-1,2.5-3.1,3.6-6.1l31.2-88.6
		c1.1-3,1.3-5,0.7-6.1c-0.6-1-2.5-1.5-5.6-1.5h-88.4c-3,0-5.2,0.5-6.6,1.5s-2.6,3.1-3.7,6.1l-31.2,88.6c-1.1,3-1.3,5-0.6,6.1
		C903.8,156.3,905.7,156.8,908.7,156.8L908.7,156.8z"/>
	<path class="st0" d="M1043.4,179.1l8.8-25h25l-8.8,25H1043.4z"/>
	<polygon class="st0" points="722,30.6 607.2,154.6 602.9,135.7 582.1,158.1 587.1,179.9 609.2,179.9 748.2,30.6 	"/>
	<polygon class="st0" points="579.4,30.6 553.2,30.6 576.5,133.1 597.3,110.6 	"/>
	<polygon class="st1" points="559,151.9 527.7,12.4 498.3,12.4 536.4,180.4 561.3,180.4 582.1,158.1 576.5,133.1 	"/>
	<polygon class="st1" points="717.6,12.4 688.2,12.4 597.3,110.6 602.9,135.7 	"/>
	<polygon class="st2" points="597.3,110.6 576.5,133.1 582.1,158.1 602.9,135.7 	"/>
	<g class="st3">
		<path class="st1" d="M1109.4,177.1c-3.3-2.6-5.5-6.1-6.6-10.3c-1.1-4.2-0.7-9,1.2-14.3l25.4-70.2c1.9-5.3,4.9-10,9.1-14.3
			c4.2-4.2,8.8-7.7,14-10.3c5.2-2.6,10.4-3.9,15.7-3.9h72.4c5.3,0,9.6,1.3,13,3.8c3.4,2.6,5.6,6,6.5,10.4c1,4.4,0.5,9.1-1.3,14.3
			l-17,47h-105.8l-8.2,22.6c-0.5,1.5-0.4,2.7,0.3,3.8c0.7,1.1,1.8,1.6,3.2,1.6h100.3l-8.6,23.7h-100.9
			C1117,181,1112.7,179.7,1109.4,177.1z M1144.2,107.1h81.8l8.7-24.1c0.5-1.5,0.5-2.7-0.1-3.8c-0.6-1.1-1.7-1.6-3.1-1.6h-71.1
			c-1.5,0-2.9,0.5-4.4,1.6c-1.5,1.1-2.5,2.4-3,3.8L1144.2,107.1z"/>
	</g>
	<g class="st3">
		<path class="st1" d="M1259.7,177.1c-3.3-2.6-5.5-6.1-6.6-10.3c-1.1-4.2-0.7-9,1.2-14.3l1.2-3.3h23.7l-1,2.6
			c-0.5,1.5-0.4,2.7,0.3,3.8c0.7,1.1,1.8,1.6,3.2,1.6h71.1c1.5,0,2.9-0.5,4.3-1.6c1.4-1.1,2.4-2.4,2.9-3.8l6.2-17.1
			c0.5-1.5,0.5-2.7-0.1-3.8c-0.6-1.1-1.7-1.6-3.1-1.6h-71.8c-5.3,0-9.6-1.3-12.9-3.8c-3.3-2.6-5.5-6-6.6-10.3
			c-1.1-4.3-0.7-9.1,1.2-14.4l6.7-18.4c1.9-5.3,4.9-10,9.1-14.3c4.2-4.2,8.8-7.7,14-10.3c5.2-2.6,10.4-3.9,15.7-3.9h72.4
			c5.3,0,9.6,1.3,12.9,3.9c3.4,2.6,5.6,6.1,6.6,10.3c1,4.2,0.6,9-1.3,14.3l-1.2,3.3h-23.9l1-2.6c0.5-1.5,0.5-2.7-0.1-3.8
			c-0.6-1.1-1.7-1.6-3.1-1.6h-71.1c-1.5,0-2.9,0.5-4.4,1.6c-1.5,1.1-2.5,2.4-3,3.8l-6.2,17.1c-0.5,1.5-0.4,2.7,0.3,3.8
			c0.7,1.1,1.8,1.6,3.2,1.6h71.8c5.3,0,9.6,1.3,13,3.8c3.4,2.6,5.6,6,6.6,10.3c1,4.3,0.5,9.1-1.4,14.4l-6.7,18.4
			c-1.9,5.3-4.9,10-9,14.3c-4.1,4.2-8.8,7.7-14,10.3c-5.3,2.6-10.5,4-15.8,4h-72.4C1267.3,181,1263,179.7,1259.7,177.1z"/>
	</g>
</g>
</svg>
