<svg width="500" height="360" xmlns="http://www.w3.org/2000/svg"><g fill="none" fill-rule="evenodd"><g fill-rule="nonzero"><path d="M110.99 280.833c.098-.198.295-.396.493-.593l-77.234-39.42c-.1-.1-3.556-1.384-5.037-3.557v5.532h.098c.395 2.866 5.334 4.743 5.334 4.743l75.16 38.333c-.198-1.68.197-3.655 1.185-5.038z" fill="#D3D3D3"/><path d="M208.371 242.104c0 .099 0 .197.1.197l2.962 1.482c.099 0 .198 0 .198-.098 0-.1 0-.198-.1-.198l-2.962-1.482c-.099 0-.198 0-.198.099zm-13.431-6.916c0 .099 0 .198.098.198l12.247 6.323c.099 0 .197 0 .197-.1 0-.098 0-.197-.098-.197l-12.247-6.323c-.099 0-.198 0-.198.1z" stroke="#0A0A28" stroke-width=".25" fill="#FFF"/><path d="M238.692 142.22c0 .197.198.79 0 .79l-2.271.89h-.1l-4.641-2.47-.593.987 8.79 4.347 1.087-4.15c-.79-.098-1.482-.197-2.272-.394z" fill="#FFFD77"/><path d="m236.914 125.82 10.667-17.883-2.864-1.482-12.74 21.538c1.382-1.285 3.06-2.075 4.937-2.174zM342 184.604l4.445 2.173 13.234-22.13c-24.395-12.35-83.654-42.385-108.839-55.13l-10.172 16.994c2.765 1.284 4.444 4.15 4.345 7.113.099 0 34.864-5.533 34.963-5.434l1.778.89c.099-.198 32.493 16.696 32.592 16.597.395.1-16.691 64.91-16.592 65.108l4.444-1.383 6.914-26.478c0-.099 0-.197.098-.197l18.47-5.336h.098l2.37 1.186c4.643-3.458 11.754.099 11.852 6.027zm-117.925-64.219 11.16-18.672-32-16.203-.592-.297-17.185 68.763 4.543-1.482 6.914-26.576c0-.099 0-.198.098-.198l5.729-1.68c.197-.197.395-.888.79-.69l.592.296 2.766-.79 1.58-6.027c0-.1 0-.1.099-.198l5.728-1.58h.099l9.58 4.544c.099 0 .099.197 0 .197l.099.593z" fill="#D3D3D3"/><path fill="#FFF" d="M165.76 56.646zm-1.635 7.227-.297 1.284zm258.764 63.428 1.679-6.422-4.84 3.952v4.05zM257.063 233.41l12.543-6.916-.297-.099-12.543 6.916zm77.431-55.623c-3.95 0-7.21 3.26-7.21 7.212.395 9.583 14.124 9.583 14.519 0-.099-3.952-3.358-7.212-7.309-7.212z"/><path d="M229.902 133.328c0-.692.099-1.383.296-1.976l-4.839 8.299 2.667 1.284 2.666-4.446c-.592-.889-.79-1.976-.79-3.161z" fill="#FFFD77"/><path d="M230.297 131.846v-.001z" fill="#FD8F6F"/><path fill="#FFF" d="m363.827 189.346-8.493 7.113 1.876 8.398z"/><path fill="#FFFD77" d="m357.408 205.351 12.345-.889-5.53-15.215z"/><path fill="#FFF" d="m382.395 204.462 9.087 4.545 5.432-1.581-9.185-4.347z"/><path fill="#FFFD77" d="m173.606 69.998 1.877-8.299-9.68-4.94-1.876 8.3zm1.975-8.595 55.309-44.656-9.58-4.841L166 56.562z"/><path d="m317.605 181.541-1.58 2.272 6.519 3.458 1.777-2.47-6.716-3.26zm4.642 3.853c0 .099-.098.099-.197.099l-4.642-2.272c-.099 0-.099-.1-.099-.198 0-.099.099-.099.198-.099l4.642 2.272c.098 0 .197.1.098.198zm51.259 24.106-1.58 2.273 6.519 3.458 1.777-2.47-6.716-3.26zm4.642 3.854c0 .099-.098.099-.197.099l-4.642-2.273c-.099 0-.099-.099-.099-.197 0-.1.099-.1.198-.1l4.642 2.273c.098 0 .197.099.098.198zm-18.172-48.707-35.95 60.069 6.913 3.655 36.049-60.168z" fill="#FFF"/><path d="m347.235 201.794 50.173 24.7.69-2.865-9.184-4.644s-.099 0-.099-.099l-7.901-4.05-.099.099-2.272.889h-.197l-6.815-3.557c-.197-.099-.197-.296-.099-.395l1.778-2.569c.099-.099.198-.198.395-.099l6.321 3.063 1.877-7.311-14.124-7.015.297.988 10.469 10.473c.098.099 0 .296-.1.296-.098-.099-21.135-3.754-21.135-3.952-.099 0-.197-.098-.099-.197l-2.074-8.892v-.099l3.556-2.964-4.84-2.667L350 197.25l5.334 2.569c.098 0 .098.098.197.197l.297 1.778c0 .1-.1.297-.198.297l-2.272.889h-.197l-5.037-2.667-.889 1.481zm-2.765-11.756 1.679-2.866-4.149-2.074c0 .889-.197 1.778-.493 2.568 1.284.79 2.271 1.581 2.963 2.372z" fill="#FFFD77"/><path fill="#FFF" d="M213.31 90.252v-.099zm49.58 25.095h-.1zm-22.025-93.562-9.679-4.84L175.878 61.6l9.679 4.84zM185.36 66.64l-9.68-4.842-1.778 8.3 9.58 4.94z"/><path fill="#FFFD77" d="m195.236 71.678-9.58-4.841-1.877 8.299 9.58 4.841zm-9.383-5.138 9.58 4.842 55.309-44.558-9.58-4.94zm187.258 82.892-9.086 7.31 9.086 4.644zm0 14.128v-1.779l-9.284-4.742-1.876 8.3 9.679 4.84zm-28.938-16.796 9.68 4.841 55.308-44.656-9.58-4.841zm9.482 5.138-9.58-4.94-1.877 8.398 9.58 4.84zm-29.235-15.116 9.58 4.84 55.31-44.656-9.58-4.84zm-.197.197-1.877 8.398 9.68 4.841 1.777-8.299zm-10.173-5.137-9.58-4.841-1.877 8.299 9.58 4.84zm-9.482-5.138 9.68 4.841 55.21-44.656-9.482-4.841zm-10.37-4.841-9.58-4.94-1.877 8.3 9.68 4.94z"/><path fill="#FFF" d="m314.445 131.747 9.679 4.841 55.308-44.558-9.679-4.94zm19.852 10.077 9.58 4.841 55.308-44.656-9.58-4.841zm-39.605-20.154 9.58 4.94 55.309-44.657-9.58-4.841zm57.382 38.728 9.68 4.841 1.777-8.299-9.58-4.94zm-8.296-13.535-9.679-4.841-1.876 8.299 9.679 4.94zm-39.605-20.056-9.679-4.841-1.876 8.299 9.679 4.841zm19.852 10.077-9.679-4.94-1.876 8.398 9.679 4.841zm-39.703-20.055-9.58-4.842-1.877 8.3 9.679 4.84z"/><path fill="#FFFD77" d="m274.445 111.889-9.58-4.94-1.877 8.299 9.68 4.84z"/><path fill="#FFF" d="m254.89 101.91-1.778 8.3 9.58 4.939 1.877-8.299z"/><path fill="#FFFD77" d="m245.21 96.674 9.58 4.84 55.31-44.656-9.58-4.84z"/><path fill="#FFF" d="m255.087 101.614 9.68 4.94 55.308-44.657-9.68-4.841z"/><path fill="#FFFD77" d="m265.062 106.652 9.58 4.94 55.31-44.656-9.581-4.841z"/><path fill="#FFF" d="m274.84 111.691 9.68 4.841 55.308-44.558-9.58-4.94z"/><path fill="#FFFD77" d="m284.815 116.73 9.58 4.84 55.31-44.656-9.581-4.84zm-30.123-14.919-9.679-4.94-1.778 8.3 9.58 4.84z"/><path d="m238.791 93.71-3.654-1.877-1.877 8.299c2.37 1.185 7.21 3.655 9.68 4.84l1.876-8.298-6.025-2.964zm-3.457-2.075c.494.297 9.482 4.841 9.58 4.841l55.309-44.656-9.68-4.841-55.209 44.656z" fill="#FFF"/><path fill="#FFFD77" d="m225.458 86.596 9.58 4.94 55.308-44.656-9.58-4.841zm9.382 5.237-9.58-4.94-1.876 8.299 9.58 4.841z"/><path fill="#FFF" d="m217.161 82.447 8 4.05 55.309-44.656-9.68-4.84-55.308 44.656zm7.803 4.248-9.68-4.84-1.777 8.298 9.68 4.841 1.777-8.299z"/><path fill="#FFFD77" d="m205.606 76.618 9.58 4.841 55.309-44.656-9.58-4.842zm-.198.198-1.777 8.397 9.58 4.841 1.876-8.299z"/><path d="m260.618 31.863-9.679-4.94-55.308 44.656 9.679 4.841 55.308-44.557zM205.21 76.717l-9.678-4.94-1.877 8.398.89.395 8.79 4.446zm148.84 75.086 9.58 4.841c1.284-1.087 8.197-6.62 9.383-7.607v-12.054c0-.099.098-.197.197-.099l34.272-15.61 11.555-9.287-9.679-4.84-55.308 44.656z" fill="#FFF"/><path fill="#FFFD77" d="m396.321 211.97-1.086 4.249 4.148 2.075 1.086-4.249z"/><path d="m386.938 207.03-4.839-2.37c-.296 1.284-1.679 6.619-1.975 7.706.098.099.494.197.494.296l.296 1.581 8 4.15 2.37-9.09v-.099l-4.346-2.173z" fill="#FFF"/><path d="m396.025 211.575.988-3.853-5.433 1.779-2.37 8.99 5.728-2.173 1.087-4.743z" fill="#FFFD77"/><path d="M381.111 179.466c-.098.198-.592.198-.592 0l-7.408-3.26c-.098 0-.197-.198-.197-.296v-9.683l-.988 4.249c0 .197-.296.296-.395.197l-3.16-1.58c-.1.098-1.186-.593-1.284-.593l-13.235 22.032 4.84 2.37 5.333-4.445c.099-.099.198 0 .198.099l3.16 8.694 14.32 7.113c0-.099 0-.197.1-.197l5.728-1.581h.099l9.58 4.545c.099 0 .099.197 0 .197 0 0 .099.099 0 .099l-.988 3.952 4.247 2.075 12.543-48.708-31.9 14.721z" fill="#D3D3D3"/><path d="m348.42 200.115 4.84 2.569 1.777-2.47c-1.086-.494-4.049-1.976-5.135-2.47l-.593 1.087 3.654 1.778c.1 0 .1.099.1.197 0 .1-.1.1-.198.1l-3.655-1.78-.79.989zm-17.284 28.552v.1l57.877 29.638.888-3.062-57.086-29.442zm5.136-8.694c-.691 1.186-2.568 4.347-3.358 5.533l56.987 29.343 7.408-28.158-50.272-24.699-10.765 17.981zm-12.642 4.841.099-.098 1.58-2.668-23.21-11.955-4.642 1.482m28.05 10.078 14.024-23.316-30.222-14.919-6.913 26.38z" fill="#FFF"/><path d="M341.803 194.483c-4.346.79-12.84-1.976-13.728-5.532-.89-1.482-1.284-3.162-1.087-4.841v-.198c.099-.494.198-1.087.395-1.58a7.743 7.743 0 0 1 2.37-3.261l-2.172-1.087-17.778 5.138 29.926 14.72 2.074-3.359zm-16.889-7.607-2.272.89h-.197l-6.815-3.558c-.197-.098-.197-.296-.099-.395l1.778-2.568c.099-.1.198-.198.395-.1l7.013 3.36c.098 0 .197.099.197.197l.296 1.779c-.098.197-.098.296-.296.395z" fill="#FFFD77"/><path d="M427.728 126.116c-.197-.494-.79-.593-1.185-.396l-3.457 1.779-3.358 1.68v2.074l7.605-3.853c.494-.297.593-.79.395-1.284zm-46.913 14.128 38.42-17.389-7.309-3.26-38.32 17.487zm-7.407-2.964v38.53l7.21 3.162v-38.53l-7.21-3.162zm48.888 12.448c-.197-.494-.79-.593-1.185-.395l-1.383.692v2.074l2.173-1.086c.494-.297.692-.79.395-1.285z" fill="#FFF"/><path d="m426.05 115.742-.494-.198.098-.099-6.42-3.26-10.765 8.694 3.358-1.482h.099l7.704 3.36c.098 0 .098.098.098.098v1.581l5.136-4.15s1.185-4.347 1.185-4.544z" fill="#FFFD77"/><path fill="#FFF" d="m422.099 130.364-2.37 1.185v8.003z"/><path d="m405.901 143.603-1.777.79c-2.272-7.904-8.395-3.458-7.803 3.557l-1.778.79-.987 16.895 16.395-7.41-4.05-14.622zm-8.987 3.458c-.099-6.422 5.037-9.189 6.815-2.47l-6.815 3.062v-.592z" fill="#212121"/><g fill="#FFFD77"><path d="M400.47 140.639c-2.075-.099-3.754 3.556-3.556 6.916l6.815-3.063c-.593-2.174-1.877-3.853-3.26-3.853z"/><path d="M381.013 140.54v38.531l38.42-17.388v-38.531l-38.42 17.388zm12.543 24.996.987-16.895 1.778-.79c-.592-7.015 5.432-11.46 7.803-3.557l1.777-.79 4.05 14.523-16.395 7.509z"/></g><path d="M373.309 210.884c0 .099 0 .197.099.197l4.642 2.273c.098 0 .197 0 .197-.099s0-.198-.099-.198l-4.642-2.272c-.098 0-.197.099-.197.099zm-55.901-27.861c0 .099 0 .198.099.198l4.642 2.272c.098 0 .197 0 .197-.099s0-.198-.099-.198l-4.642-2.272c-.098 0-.197 0-.197.099z" fill="#212121"/><path d="M324.815 184.702a.212.212 0 0 0-.197-.197l-7.013-3.36c-.098-.098-.296 0-.395.1l-1.777 2.568c-.1.1-.1.297.098.395l6.815 3.557h.198l2.271-.889c.1-.099.198-.198.198-.296l-.198-1.878zm-2.271 2.57-6.519-3.459 1.58-2.272 6.716 3.26-1.777 2.47zm-41.087-57.699c-8.987 1.384-27.259 4.249-36.246 5.73l-16.099 65.602 35.852-6.026 16.493-65.306z" fill="#212121"/><path fill="#FFF" d="m215.285 135.007-18.074-8.891-6.815 26.378 10.963 5.73z"/><path d="M195.137 235.188c-.198-.099-.296.198-.099.296l12.247 6.323c.099 0 .197 0 .197-.098 0-.1 0-.198-.098-.198l-12.247-6.323zm13.333 6.817c-.197-.099-.296.198-.099.296l2.963 1.482c.198.1.297-.197.1-.296l-2.964-1.482zm-97.58 46.731c-.197-.098-.296.198-.098.297.197-.1 26.864 14.128 27.061 13.733 0-.1 0-.198-.099-.198l-26.864-13.832zm26.47 4.743c.197.098.296-.198.098-.297l-22.222-11.46c-.099 0-.198 0-.198.099 0 .098 0 .197.1.197l22.221 11.46z" fill="#212121"/><path fill="#FFF" d="m209.161 116.927 9.087 4.545 5.432-1.58-9.284-4.348zm-5.629 6.916-1.58 2.273 6.518 3.457 1.778-2.47-6.716-3.26zm4.74 3.853c0 .1-.098.1-.197.1l-4.642-2.273c-.099 0-.099-.1-.099-.198 0-.099.1-.099.198-.099l4.642 2.273c.099 0 .099.098.099.197z"/><path d="M203.334 125.325c0 .099 0 .198.1.198l4.641 2.272c.099 0 .198 0 .198-.099s0-.197-.1-.197l-4.641-2.273s-.099 0-.198.1z" fill="#212121"/><path d="m207.285 123.152-.494 1.976 3.852 1.877.099.098.197 1.482 4.642 2.47 2.47-9.188-9.186-4.643-1.185 4.446 1.185-4.545c-.296 1.087-1.383 4.94-1.58 6.027z" fill="#FFF"/><path fill="#FFFD77" d="m207.285 123.152-2.864.79 2.271 1.186z"/><path fill="#FD8F6F" d="m218.248 122.065-2.37 8.892z"/><path d="m217.161 131.945-1.283-.692c-.1 0-.198.099-.198 0l-4.642-2.371c0 .099 0 .099-.099.197l-2.271.89h-.1l-6.814-3.557c-.099 0-.099-.099-.099-.198l1.186-1.68-5.235 1.483 17.876 8.793 1.68-2.865z" fill="#FFFD77"/><path fill="#FD8F6F" d="m218.248 130.067 2.568-4.248z"/><path fill="#FFFD77" d="m223.482 121.274.297-1.086-5.432 1.58-2.47 9.189 2.37-.89 5.235-8.793z"/><path d="m232.668 139.848-.198.297 3.358 1.68c.099 0 .198 0 .198-.1 0-.098 0-.197-.1-.197l-3.258-1.68z" fill="#212121"/><path d="m232.668 139.848 3.358 1.68c.098 0 .098.099.098.198 0 .098-.098.098-.197.098l-3.358-1.68-.692 1.088 4.544 2.37 1.777-2.47-4.84-2.37-.69 1.086zm-1.778 2.866-14.124 23.513 16.395 8.497 6.618-27.663c-2.173-.988-6.618-3.26-8.89-4.347zm-5.827-2.866-13.827 23.514 2.567 1.285 13.926-23.415zm11.654-13.732c-4.74.296-8.099 5.73-6.025 10.077l6.025-10.077zm7.013 8.002 1.382.692c8.988-1.383 27.062-4.249 35.95-5.632l-1.382-.691-35.95 5.631zm1.283 1.087c-.296-.198-1.185-.692-1.58-.89l-16.099 65.899 1.482.691 15.605-63.428.592-2.272z" fill="#FFF"/><path d="M243.137 134.217c.098-.296 0-.198.197-.296l1.284-.198c.198-2.865-1.58-5.73-4.148-6.916l-7.012 11.757 4.247 2.075c1.58-.099 3.061-.593 4.246-1.581l1.186-4.446v-.395zm-7.605-32.504-35.654 59.772 9.382 4.742 35.358-59.97zm-20.741 67.379 35.852-59.87-2.667-1.285-35.753 59.871zm-1.185-4.149-2.568-1.284-1.679 2.865c.593.296 1.877.988 2.47 1.284v-.099l1.777-2.766z" fill="#FFF"/><path fill="#C2B3FF" d="m201.557 158.62-1.68 2.865z"/><path d="m201.26 158.521-10.963-5.73-4.642 1.482.79.395 13.136 6.817c-.098-.099 1.68-2.964 1.68-2.964zm15.408 8.003-1.68 2.865 17.383 8.892.79-3.162z" fill="#FFF"/><path fill="#C2B3FF" d="m213.902 165.042-1.679 2.766zm-3.062-1.581-1.58 2.766z"/><path d="M194.15 234.694c-.396.198-.988.494-1.482.395l20.345 10.473c.1.099.1.296-.098.296-.198-.099-22.223-11.362-22.321-11.56-1.482-.592-2.667 2.076-2.667 2.372-.494 1.186-1.185 1.877-1.58 2.272l7.703 3.952c.1 0 .1.1.1.198 0 .099-.1.099-.198.099l-7.902-3.952-.197.099 14.123 7.212c.1 0 .1.099.1.197 0 .1-.1.1-.198.1l-15.309-7.806c-.691-.296-1.284 1.087-1.284 1.186-.296.79-.79 1.087-.988 1.185 0 .1-70.222 38.828-70.222 38.828s-1.481.889-1.975 4.05l-.197 3.952c.197.396 0 .593-1.482 1.482l-47.506 26.38L91.73 332.01l48.592-26.577s.692-.197.89-2.272l.888-5.83s0-.69.79-1.382l.099-.1h.099l70.222-38.63s.592-.493.889-1.283c.098-.297.888-1.976 1.876-1.186 0 0 .593.494 1.185.198h.099c.593-.396 1.086-.988 1.778-2.372.099-.592 1.679-3.655 3.457-2.272.098 0 1.086.89 2.37.296h.099l72.098-39.716 9.975-38.926-112.987 62.736zm13.332 6.916c0 .099-.098.099-.197.099l-12.247-6.323c-.099 0-.099-.1-.099-.198 0-.099.1-.099.198-.099l12.247 6.323a.306.306 0 0 1 .098.198zm4.05 2.075c0 .098-.099.098-.198.098l-2.963-1.482c-.098 0-.098-.098-.098-.197s.098-.099.197-.099l2.963 1.482c.099 0 .099.099.099.198zm-96.494 38.136c0-.1.1-.1.198-.1l22.222 11.461c.099 0 .099.099.099.198-.198.395-22.123-11.46-22.42-11.362-.099 0-.099-.099-.099-.197zm22.815 20.846c0 .099-.099.099-.197.099l-26.864-13.832c-.1 0-.1-.099-.1-.198 0-.098.1-.098.198-.098l26.864 13.831a.306.306 0 0 1 .1.198z" fill="#FFFD77"/><path d="M110.89 288.736c-.197-.098-.296.198-.098.297.197-.1 26.864 14.128 27.061 13.733 0-.1 0-.198-.099-.198l-26.864-13.832zm23.506 3.261 2.963 1.482c.1 0 .198-.198.1-.297l-22.223-11.46c-.099 0-.198 0-.198.099 0 .098 0 .197.1.197l19.258 9.979zm63.605-55.031.691.396.395-.198-.79-.395z" fill="#212121"/><path fill="#FFF" d="m270.1 226 3.95-2.174zm-56.89 31.22-1.086.593 1.087-.593zm47.902 88.424 131.555-67.973c2.173-1.186 3.26-2.47 3.16-3.952-.098-2.964-5.135-5.533-5.234-5.533L288.667 216.12c-2.568 1.383-7.703 4.248-10.271 5.632l102.123 52.066c-.099.198-64.296 33.196-64.197 33.591l-.1-.099-12.839 6.719c-.098-.1-99.061-51.375-99.16-51.375l-6.32 3.458 25.184 12.646-47.11 24.502c-.297-.198-23.21-11.955-23.507-12.153l-8.79 4.842 97.383 49.695c11.456 6.916 19.95 0 20.049 0zm-108.444-55.03.197-.1zm44.444-24.502-.099.098.1-.098zm-13.333-103.639c-8.494-4.347-16.79 0-16.889 0L34.446 229.655c-3.753 1.878-5.63 3.853-5.432 5.632.198 2.964 5.333 4.94 5.432 4.94l77.53 39.519 8.988-4.94-11.16-5.83 45.926-24.007.197.099 9.877 4.94 6.814-3.755-70.221-36.357 75.456-39.42c.099.098 50.074 25.49 50.271 25.588.297-1.284 2.074-8.299 2.37-9.78l-46.715-23.811z"/><path d="M395.827 277.473v-1.482c-.592.79-1.481 1.581-2.765 2.273l-131.456 67.973c-.395.296-4.346 3.26-10.173 3.26-3.062 0-6.716-.79-10.765-3.26l-97.58-49.794v6.52c24.987 12.844 73.58 37.346 97.975 49.992 6.913 4.446 15.407 3.655 19.95 0 0 0 132.246-68.368 132.345-68.368 0 0 2.272-1.186 2.173-3.36l.296-3.754z" fill="#D3D3D3"/><path d="m427.235 104.479-69.037-35.172-3.852-1.976c-25.778-13.239-99.358-50.683-126.32-64.416.197.099-6.223-3.162-7.704-1.383-.889.296-3.062 1.185-3.95 1.58 1.678 0 4.444-.296 7.802 1.779l121.58 62.045s5.234 2.667 6.222 3.161l70.123 35.765s10.963 4.841 10.963 14.03l-35.654 149.875.197.494 4.74-1.185L438 118.113c-.099-8.793-10.667-13.634-10.765-13.634zM256.766 199.72l-4.642-2.371-16.197 2.667 10.568 5.434z" fill="#FFF"/><path fill="#212121" d="m235.235 101.713-.197.395z"/></g><path stroke="#212121" stroke-width=".5" stroke-linecap="round" stroke-linejoin="round" d="m438 266 34 17M168 127l15 8"/><path d="m438.11 121.917.89-3.953c0-9.39-11.07-14.431-11.17-14.431l-72.75-37.065-6.128-3.163L231.82 3.606l-.89-.395c-.198-.099-8.698-5.041-11.17-2.471l-5.93 2.273c-.791.79-.989 1.68-.989 1.68l-3.954 16.902.1-.198-43.196 34.89-.1.1c-.197.89-1.778 8.104-1.976 8.796 1.582.791 28.962 14.629 31.433 15.913v-.098l-17.99 77.49 4.448 2.273c-7.908-2.57-15.024.989-15.123 1.087L33.93 229.06c-4.152 2.175-6.228 4.25-5.832 6.623v6.72c0 .1-.099.297-.099.396.099 1.68 1.483 2.965 2.867 3.954.296 2.866 5.337 4.843 5.436 4.843l72.948 37.163c-.198.198-.494.396-1.186.791-.198.099-47.742 26.49-47.94 26.687.099 0 31.433 16.21 31.433 16.21l48.632-26.687c.099 0 .494-.198.79-.89l102.01 51.99c11.465 7.018 19.966.099 19.966 0l123.557-63.85c.395-.198.988-.593 1.384-.791l50.016-26.786V121.917h.197zM175.873 302.991l.198.1 47.15-24.513-25.305-12.651 6.326-3.46c.197.099 99.142 51.298 99.24 51.397l12.85-6.721.1.098c-.1-.395 64.15-33.407 64.25-33.605l-102.207-52.088 10.28-5.634 102.008 52.088c.1 0 5.14 2.57 5.24 5.535 0 1.384-.99 2.669-3.164 3.954l-131.662 68.001c-.1.1-8.501 6.92-19.967 0l-97.462-49.716 8.797-4.843 23.328 12.058zm-22.636-12.453 43.888-24.117 24.415 12.256-45.47 23.721-22.833-11.86zm170.212-45.269 14.135 7.215-7.907 4.053.099.099-13.938-7.216 7.611-4.15zm6.425 40.03-5.238-2.669-.1-.197h-.098l-8.797-4.547 12.553-7.017 14.036 7.314-12.356 7.116zm-14.826-7.61-13.246-6.82 12.653-6.92 12.948 6.722-12.355 7.017zm-18.979-9.094 13.839 7.215-12.158 6.623-13.839-7.117 12.158-6.72zm-12.85 6.326-13.74-7.117 12.06-6.622 13.74 7.117-12.06 6.622zm17.99-4.646.297.396-5.338-2.768-.099-.099h-.099l-8.797-4.546 12.554-6.919 13.838 7.215-12.356 6.721zm-14.629-7.61.297.395-14.234-7.314 12.553-6.919 13.74 7.117-12.356 6.72zm-5.832-1.977-12.059 6.622-13.74-7.116 12.06-6.622 13.74 7.116zm-5.04 11.169-12.554 6.919-13.74-7.117 12.554-6.919 13.74 7.117zm.691.395-.099-.197 13.937 7.215-12.553 6.919-13.74-7.117 12.455-6.82zm14.53 7.512 13.839 7.215-12.653 6.92-13.838-7.117 12.652-7.018zm7.611 3.064 12.158-6.622 12.95 6.72-11.961 6.722-13.147-6.82zm31.73-11.663 12.454-6.919 14.036 7.314-12.454 6.92-14.036-7.315zm-.79-.395-13.147-6.82 12.553-6.919 12.949 6.721-12.356 7.018zm-13.938-7.216-13.839-7.116 12.554-6.919 13.838 7.215-12.553 6.82zm-14.53-7.511-13.74-7.117 12.553-6.919 13.74 7.117-12.553 6.919zm-14.53-7.512-13.74-7.117 12.553-6.918 13.74 7.116-12.554 6.919zm-1.978-.198-12.355 6.82.296.395-5.14-2.668-.099-.1h-.098l-8.798-4.546 12.554-6.919 13.64 7.018zm-18.286 4.843-12.06 6.622-14.035-7.215 12.059-6.622 14.036 7.215zm-19.868 3.46-12.553 6.918-13.542-7.017 12.553-6.919 6.425 3.36.099.1h.099l6.919 3.558zm.79.395 14.037 7.215-12.554 6.919-5.238-2.767-.1-.198-.098.099-8.5-4.35 12.454-6.918zm-4.052 12.157 17.693 9.192-11.663 6.524-17.694-9.192 11.664-6.524zm18.484 9.588 13.443 6.918-11.664 6.524-13.443-6.919 11.664-6.523zm14.135 7.413 39.835 20.657-12.06 6.326-39.439-20.559 11.664-6.424zm17.298 8.105 12.553-6.82-.098-.198 23.92 12.355-12.949 6.72-23.426-12.057zm19.473-4.25 11.96-6.722 18.089 9.39-12.455 6.523-17.594-9.192zm18.088-4.35 12.554-7.017 13.344 6.919-12.949 6.72-12.949-6.622zm14.53-6.82 12.455-6.918 12.554 6.523-12.95 6.721-12.058-6.325zm13.938-7.017 8.204-4.25 11.862 6.029-8.303 4.349-11.763-6.128zm-.79-.395-14.037-7.315 8.105-4.25 14.135 7.216-8.204 4.349zm-14.828-7.71-13.146-6.82 8.006-4.151 13.147 6.721-8.007 4.25zm-28.467-14.727-13.74-7.116 7.71-4.053 13.839 7.018-7.81 4.151zm-14.53-7.512-13.74-7.116 7.611-3.954 13.838 7.018-7.71 4.052zm-14.53-7.61-14.037-7.216 7.512-3.855 14.135 7.216-7.61 3.854zm-14.828-7.611-.593-.297 7.216-3.953.79.395-7.413 3.855zm13.344 7.808-12.454 6.919-14.036-7.314 12.553-6.919 13.937 7.314zm-14.431 6.721-12.356 6.82.297.396-5.535-2.867-.1-.099h-.098l-8.402-4.349 12.652-6.918 13.542 7.017zm-18.583 4.646-12.06 6.622-8.5-4.349 12.06-6.622 8.5 4.349zm-19.374 3.756-12.553 6.918-1.878-.988c.099 0 .099-.099.198-.198l12.355-6.82 1.878 1.088zm10.28 19.57-11.565 6.424.1.198-25.8-13.343 11.763-6.425 25.502 13.146zm72.059-123.154c-.1 0-32.52-16.704-32.62-16.605l-1.779-.89c-.098-.099-34.892 5.436-34.99 5.436.197-3.064-1.582-5.831-4.35-7.116l10.181-17c25.502 12.947 84.216 42.698 108.928 55.152l-13.245 22.14-4.449-2.174c0-5.93-7.215-9.49-11.96-5.93l-2.372-1.187h-.099l-18.484 5.337c-.099 0-.099.1-.099.198l-6.92 26.49-4.447 1.383c0-.198 17.001-65.135 16.705-65.234zm-185.83 64.245-11.664 6.524-12.949-6.721 12.356-6.425-.198.198 12.455 6.424zm30.741 1.582-12.553 7.018-3.658-1.878-.296-.396-.297.099-12.85-6.622-.197-.198-.1.099-12.553-6.523 13.048-6.82v.098l29.456 15.123zm5.041-11.07-12.06 6.721-21.745-11.268 12.454-6.523 21.351 11.07zm3.756-12.355-12.553 7.018-11.763-6.03 13.147-6.918-.1.197 11.27 5.733zm60 9.489.593-2.57 2.075-8.698.198-.692c0-.099.099-.593.198-.692.197-.988 12.75-52.088 12.355-50.606.297.198 1.187.692 1.582.89l-.494 2.174-11.862 48.333-.395 1.384-2.372 9.785-.198.692-.79 3.162-1.484-.691.593-2.471zm-19.177-80.555c2.274 1.186 6.92 3.46 9.193 4.547l-2.471 9.192-4.646-2.471-.197-1.483s0-.098-.1-.098l-3.854-1.878.494-1.977-.297.099-.494 1.68-2.076-.989 2.867-.79c.198-.89 1.285-4.745 1.581-5.832l-1.186 4.448 1.186-4.448zm14.63 4.151-5.24 8.797-2.372.89 2.472-9.192 5.436-1.582-.296 1.087zm-4.943.1-.296.098a389.764 389.764 0 0 1-9.094-4.546l5.338-1.483 9.192 4.448-5.14 1.482zm-11.96 3.953 3.657 1.779-1.779 2.471-6.524-3.46 1.285-1.877.297-.396c.197.1 2.767 1.384 3.064 1.483zm-4.942.79c-.1.1 0 .198.099.198l6.82 3.559h.099l2.273-.89c.099 0 .099-.099.099-.198l4.646 2.372c0 .1.197 0 .197 0l1.285.692-1.68 2.867-17.891-8.797 5.239-1.483-1.186 1.68zm13.64 8.896-13.937 23.228-11.07-5.733 6.919-26.39 18.088 8.895zm-14.036 23.524s-1.779 2.866-1.779 2.965l-13.937-7.116 4.646-1.483 11.07 5.634zm34.3-56.833 8.995 4.547c-9.786 16.605-25.502 43.292-35.387 59.996l-9.39-4.745 35.782-59.798zm5.634-79.862 9.588 4.843-55.354 44.675-9.588-4.843 55.354-44.675zM185.56 66.27l-9.588-4.844 55.353-44.675 9.687 4.843L185.56 66.27zm65.436-39.536 9.687 4.942-55.354 44.675-9.687-4.843 55.354-44.774zm-35.782 54.56-9.588-4.844 55.353-44.676 9.588 4.844-55.353 44.675zm55.65-44.479 9.687 4.843-55.354 44.676-9.588-4.843 55.255-44.676zM205.428 76.65l9.588 4.942-1.878 8.302-9.49-4.843 1.78-8.401zm9.884 5.04L225 86.533l-1.878 8.302-9.588-4.843 1.78-8.303zm9.984 5.041 9.588 4.942-1.878 8.303-9.588-4.843 1.878-8.402zm.198-.296 55.353-44.676 9.588 4.843-55.353 44.676-9.588-4.843zM290.732 46.8l9.686 4.843-55.353 44.676-9.588-4.843L290.732 46.8zm135.517 68.792c-.692 2.57-2.372 8.995-3.064 11.664l1.779-7.117-5.14 4.151v-1.581c0-.099 0-.099-.099-.099l-7.71-3.36h-.099l-3.36 1.482 10.774-8.698 6.425 3.262.099-.099-.198.198.593.197zm-4.942 33.606c1.087-.494 1.878 1.087.79 1.581l-2.174 1.088v-2.076l1.384-.593zm-1.384-9.785v-8.006l2.372-1.186-2.372 9.192zm0-8.303v-2.075c1.68-.89 5.14-2.57 6.82-3.46 1.087-.494 1.878 1.088.79 1.582 0 .099-7.61 3.953-7.61 3.953zm0-2.372v-4.052l4.744-3.855-1.68 6.326c-.692.395-2.273 1.186-3.064 1.581zm-22.438 97.555c-11.466-5.634-39.044-19.175-50.115-24.611.198-.297.593-.989.79-1.285l5.042 2.669h.198l2.273-.89c.099-.099.198-.198.198-.297l-.297-1.779a.213.213 0 0 0-.197-.197l-5.338-2.57c.395-.692 3.262-5.436 3.756-6.326l4.844 2.372-3.559 2.965s-.099.1 0 .1l2.076 8.895c0 .099 0 .198.099.198 0 .098 21.153 3.854 21.153 3.953.098 0 .098 0 .197-.099v-.197l-10.477-10.477-.297-.89v-.099l14.135 7.018-1.878 7.314-6.326-3.064c-.099-.099-.297 0-.395.099l-1.78 2.57c-.099.098-.099.296.1.395l6.82 3.558h.197l2.274-.89c.098 0 .098-.098.098-.098l7.908 4.052c.099.198 9.094 4.646 9.193 4.744.099 0-.692 2.867-.692 2.867zm-64.744-.79-1.68 2.767-6.92-3.657c4.547-7.512 16.211-26.984 20.56-34.397.791-1.285 14.135-23.721 15.42-25.698 1.483.79 5.437 2.768 7.018 3.558-9.884 16.605-24.415 40.821-34.398 57.426zm.198.296 57.132 29.454-.89 3.064-57.923-29.652v-.099l1.68-2.767zm8.896-41.019c0 3.855-3.163 7.314-7.216 7.314-6.92 0-9.885-8.895-4.35-13.046 4.548-3.559 11.566-.1 11.566 5.732zm.099 1.582c.098-.396.098-.89.098-1.285l4.152 2.075-1.68 2.867c-.692-.791-1.68-1.582-2.966-2.274.198-.494.396-.988.396-1.383zm-12.356-7.018c-2.669 2.372-3.262 6.523-1.384 9.489.79 3.459 9.687 6.424 13.74 5.535l-2.076 3.459-29.95-14.727 17.792-5.14 2.174 1.088c-.098 0-.197.197-.296.296zm10.082 18.878-14.036 23.425-23.13-11.96 6.92-26.29 30.246 14.825zm-74.727-91.426 9.588 4.942-1.878 8.302-9.588-4.843 1.878-8.401zm-2.175 8.203-9.687-4.942 1.878-8.302 9.687 4.942-1.878 8.302zm12.06-3.162 9.587 4.843-1.878 8.302-9.588-4.843 1.878-8.302zm9.884 4.942 9.588 4.942-1.878 8.302-9.588-4.843 1.878-8.401zm9.885 5.04 9.686 4.844-1.878 8.302-9.686-4.843 1.878-8.303zm9.983 5.041 9.588 4.942-1.878 8.303-9.588-4.843 1.878-8.402zm9.885 4.942 9.686 4.942-1.878 8.303-9.687-4.942 1.879-8.303zm9.884 5.041 9.588 4.942-1.878 8.303-9.588-4.844 1.878-8.401zm9.885 5.04 9.687 4.844-1.879 8.302-9.686-4.843 1.878-8.302zm9.983 4.943 9.588 4.942-1.878 8.302-9.588-4.843 1.878-8.401zm9.885 5.04 9.686 4.844-1.878 8.302-9.686-4.843 1.878-8.302zm19.176 9.786v1.878l-1.483 6.622-9.588-4.843 1.878-8.303 9.193 4.646zm-9.094-5.041 9.094-7.314v11.86l-9.094-4.546zm-11.17 43.786-3.657-1.78.593-1.086 5.14 2.47-1.78 2.472-4.843-2.57.692-1.088 3.658 1.78c.197.197.395-.1.197-.198zm14.728-1.977.1.395 1.976 5.437-12.257.89a1943.567 1943.567 0 0 0 6.82-16.112c.198.593 3.262 9.094 3.361 9.39zm-10.378 6.326-1.977-8.402 8.6-7.215-6.623 15.617zm24.81-.198 9.291 4.646c-.099 0 0 .098-.099.098l-2.372 9.094-7.908-4.152h-.098l-.297-1.68c0-.099-.395-.296-.494-.296l1.977-7.611c.099 0 .099-.099 0-.099zm14.135 6.919-1.186 4.645-5.733 2.175 2.372-8.995 5.436-1.779-.89 3.954c-.098 0-.098 0 0 0zm-4.646-2.57-9.094-4.547 5.338-1.482 9.192 4.448-5.436 1.581zm-11.268 3.756-1.78 2.471-6.523-3.46 1.581-2.273 6.722 3.262zm15.024 3.46 1.087-4.25 4.25 2.075-1.087 4.25-4.25-2.076zm1.186-4.745.989-3.954c.099 0 0-.098 0-.098.099-.1.099-.198 0-.198l-9.588-4.547h-.1l-5.732 1.582c-.1 0-.1.099-.1.197l-14.332-7.116-3.163-8.698c0-.099-.197-.099-.197-.099l-5.338 4.448-4.844-2.372 13.246-22.041 1.186.593h.099l3.163 1.581c.198.099.395 0 .395-.198l.989-4.25v9.687c0 .098.099.197.197.296l7.414 3.262c.099.198.494.198.593 0l32.125-14.53-12.751 48.63-4.25-2.175zM380.78 140.4v38.548l-7.216-3.163v-38.548l7.216 3.163zm-7.018-3.46 38.352-17.494 7.315 3.262-38.451 17.396-7.216-3.163zm7.413 42.008V140.4l38.451-17.494v38.547l-38.45 17.495zm26.49-57.723-34.298 15.617c-.1 0-.198 0-.198.099v12.058l-9.39 7.61-9.589-4.842 55.354-44.676 9.687 4.843-11.565 9.291zm-53.672 30.245-9.588-4.843 55.353-44.675 9.588 4.843-55.353 44.675zm-9.984-4.942-9.588-4.843 55.354-44.675 9.687 4.843-55.453 44.675zm-9.884-5.04-9.588-4.844L379.89 91.97l9.588 4.843-55.353 44.675zm-9.885-5.041-9.687-4.844 55.354-44.675 9.687 4.942-55.354 44.577zm-9.884-5.041-9.588-4.843 55.353-44.676 9.588 4.843-55.353 44.676zm-9.984-4.942-9.588-4.843 55.354-44.676 9.687 4.843-55.453 44.676zm-9.884-5.041-9.588-4.843c6.721-5.436 49.719-40.129 55.353-44.676 2.175 1.088 7.414 3.756 9.588 4.844l-55.353 44.675zm39.637-44.873c-.099 0-.099 0 0 0l-49.522 39.931-9.588-4.843 47.347-38.251 8.007-6.425 9.588 4.844-5.832 4.744zm-59.406 34.89-9.588-4.843 55.353-44.675c.198.098 9.193 4.645 9.588 4.843L274.72 111.44zm-9.885-5.04-9.687-4.844 55.354-44.675c2.273 1.186 7.413 3.756 9.687 4.942l-55.354 44.576zm-9.983-5.041-9.588-4.844 55.353-44.675 9.588 4.843-55.353 44.676zm-9.786-4.646 9.588 4.942-1.878 8.303-1.78-.89-.098-.099-5.93-2.965-1.78-.89 1.878-8.4zm-19.77 42.798 4.844-8.303.1-.099c-.495 1.68-.396 3.756.394 5.338l-2.668 4.546.098-.099-2.767-1.383zm2.472 1.581-14.036 23.524-2.57-1.285 13.838-23.524 2.768 1.285zm2.471-7.907c0-3.756 2.965-6.919 6.623-7.215l-6.03 10.081c-.395-.89-.593-1.779-.593-2.866zm5.437-7.314c-1.384.296-2.57 1.087-3.559 1.977l12.751-21.547 2.867 1.482-10.676 17.89c-.494.099-.988.099-1.383.198zm-24.613 37.658 2.57 1.285-1.68 2.866v.099l-2.471-1.285 1.581-2.965zm2.965 1.186c9.292-15.518 24.712-41.414 34.003-56.833l2.67 1.285-34.201 57.13-1.582 2.668-2.57-1.285 1.68-2.965zm30.643-31.135-1.285.198c-.1 0-.1.099-.1.099s-1.284 4.744-1.284 4.942c-1.186.988-2.67 1.581-4.25 1.581l-4.251-2.075 7.018-11.762c2.669 1.285 4.35 4.052 4.152 7.017zm35.189-5.14 1.383.693c-8.896 1.482-27.083 4.25-35.98 5.633l-1.383-.692 35.98-5.633zm-44.58 16.31 4.646 2.272-6.623 27.676-16.408-8.5 14.135-23.623v.099l4.25 2.075zm4.646 1.976c-2.175-1.087-6.623-3.262-8.797-4.349l.593-.988 4.646 2.47h.098l2.274-.889c.198 0 0-.593 0-.79.79.197 1.581.296 2.273.395l-1.087 4.151zm-8.105-5.634 1.482-2.47c.89.394 4.053 1.976 4.844 2.371l-1.78 2.471-4.546-2.372zm-15.124 25.303 16.507 8.6-.79 3.26-17.397-8.994 1.68-2.866zm10.379 33.704c0 .1 0 .1.099.198l1.78.79h.098s5.535-.988 5.634-.988l-6.919 3.657.099.1-13.74-7.117 7.018-3.657 7.018 3.558-1.087 3.46zm-13.344 10.675-13.64-7.116 12.454-6.92 13.64 7.117-12.454 6.919zm-14.036 7.116-5.239-2.767-.099-.099-8.797-4.546 12.553-7.018 13.641 7.116-12.356 6.82.297.494zm-40.132-6.226 14.234 7.413-12.553 7.017-5.93-3.064-.1-.198-.099.1-7.61-3.954 12.355-6.82-.297-.494zm23.526-30.048 14.036 7.216-12.455 6.918-13.74-7.116 12.356-6.919-.197-.099zm16.21 21.745-13.937-7.215 12.455-6.919 13.838 7.215-12.356 6.92zm-14.036 7.018-14.431-7.512 12.553-7.018 13.839 7.216-12.356 6.82.395.494zm8.205 5.14-12.06 6.72-13.838-7.215 12.06-6.721 13.838 7.215zm-10.873-19.966-12.455 6.919.198.296-14.135-7.314 12.553-7.018 13.839 7.117zm-3.757 12.355-12.059 6.72-13.74-7.116 12.06-6.72 13.74 7.116zm-4.349 11.564 13.937 7.116-12.553 7.018-13.838-7.215 12.454-6.92zm7.809 3.163 12.06-6.721 13.64 7.116-12.06 6.721-13.64-7.116zm30.939-26.39.098.098-14.036-7.215 6.82-3.558 13.938 7.116-6.82 3.559zm-14.728-7.512-13.74-7.117 6.722-3.558 13.838 7.117-6.82 3.558zm-14.53-7.512-12.752-6.622 6.623-3.46 12.949 6.623-6.82 3.459zm-1.483.099-12.455 6.919-12.553-6.524 12.85-6.72 12.158 6.325zm-53.18 28.96 12.356 6.424-11.663 6.524-12.356-6.425 11.664-6.523zm13.147 6.82 11.862 6.128-11.664 6.523-11.862-6.128 11.664-6.523zm12.652 6.622 18.287 9.489-11.664 6.523-18.286-9.489 11.663-6.523zm19.078 9.884 9.785 5.04c-.593.297-.988 1.286-.988 1.286-.297.79-.89.988-.89.988l-8.698 4.744-10.972-5.633 11.763-6.425zm2.47.395 12.554-7.017 9.292 4.843-4.844 2.669h-.099c-.395.197-.89.197-1.285.197l-1.482-.79c-1.68-.692-2.966 1.976-3.163 2.57-.593 1.284-1.285 1.976-1.68 2.273L176.663 234zm20.066-3.953 12.06-6.721 2.57 1.383-12.06 6.722-2.57-1.384zm12.06-7.413-8.897-4.547 12.554-7.017 12.257 6.325-12.554 6.92-3.36-1.681zm5.634-11.367 12.454-6.919 11.071 5.733-12.553 6.919-10.972-5.733zm14.036-7.017 7.018-3.657-.099-.1 10.28 5.24-7.018 3.854-10.181-5.337zm7.512-4.35 16.21-2.668 4.647 2.372-10.28 5.733-10.577-5.436zm17.496-3.162c-4.448.79-13.542 2.273-17.99 2.965l-1.186.198-5.14.89.494-1.978 3.36-13.738 12.258-49.914c8.995-1.483 27.281-4.35 36.276-5.733l-16.408 65.333-11.664 1.977zm48.73 13.145 23.23 11.96-1.582 2.669-.099.099-26.194-13.245 4.646-1.483zm87.973 44.874-57.034-29.356c1.977-3.36 11.862-19.866 14.135-23.524a11599.75 11599.75 0 0 1 50.313 24.71l-7.414 28.17zM219.07 1.828l1.285-.495c1.976-2.175 9.983 2.57 10.082 2.57L355.08 67.457l-.593-.297 72.948 37.164c.099 0 10.675 4.843 10.675 13.738L402.427 269.09l-4.744 1.186-.198-.494 35.683-149.94c0-9.29-10.972-14.035-10.972-14.035l-70.18-35.78.593.297-128.5-65.53c-3.36-2.175-6.128-1.78-7.808-1.78l2.768-1.186zm2.174 9.587-.494.395-.099.198.198-.791.395.198zm.099.296 9.588 4.843-55.354 44.676-9.588-4.843 55.354-44.676zm-57.43 53.176 1.879-8.303 9.588 4.942-1.878 8.303-9.588-4.942zm9.984 5.04 1.878-8.302 9.687 4.843-1.878 8.303-9.687-4.843zm9.885 5.041 1.878-8.302 9.588 4.942-1.878 8.302-9.588-4.942zm9.884 5.041 1.878-8.302 9.687 4.942-1.878 8.302-9.687-4.942zm9.094 5.041.593.297 32.026 16.21.198-.396-2.175-1.087 1.878-8.303 9.687 4.843-1.878 8.303-7.413-3.756-11.466 19.076 10.971-18.285-10.971 18.285.098-.297v-.098c0-.1 0-.1-.098-.1l-9.589-4.546h-.098l-5.733 1.582c-.1 0-.198.098-.1.197-.395 1.483-1.185 4.547-1.58 6.03l-2.768.79-.594-.296c-.296-.198-.593.494-.79.692l-5.733 1.68c-.1 0-.1.099-.1.099v.098l-6.918 26.588c-.989.297-3.46 1.088-4.547 1.483l17.1-69.089zM34.425 229.455l132.552-67.211c.099 0 8.402-4.35 16.903 0l46.655 23.82-2.373 9.785c-.296-.197-50.016-25.5-50.312-25.6l-75.518 39.438 70.28 36.373-6.821 3.756-9.885-4.942-.197-.1-45.964 24.118 11.17 5.831-8.995 4.942-77.594-39.536c-.099 0-5.239-1.976-5.436-4.942-.1-1.878 1.779-3.854 5.535-5.732zM165 250.31l-43.294 23.92-10.38-5.338 44.383-23.228L165 250.31zm-130.674-2.866c-.099 0-4.942-1.878-5.338-4.745h-.098v-5.535c1.581 2.175 4.942 3.46 5.04 3.558l77.298 39.437c-.494.495-1.285 1.68-1.68 3.855l-.1 1.78-75.122-38.35zm108.631 48.332c-.395.395-.691.692-.79 1.087-.1.198-.297 1.977-.396 2.175-.099.395-.692 4.25-.692 4.546 0 .198-.098.396-.197.692-.297.89-.692.989-.692.989l-48.632 26.588-30.84-15.914 47.545-26.39c.692-.395 1.087-.692 1.285-.89.296-.296.296-.395.197-.592l.1-2.076c0-1.977.296-4.25 1.778-5.733.396-.395.396-.296.692-.494l8.995-4.942.791-.395c11.96-6.623 48.83-26.983 60.098-33.21.198-.198.593-.396.989-1.186 0 0 .494-1.285 1.186-1.187h.099l15.32 7.809c.1 0 .198 0 .198-.099s0-.198-.099-.198l-14.134-7.215.197-.099 7.908 3.954c.099 0 .099 0 .198-.1 0-.098 0-.197-.1-.197l-2.767-1.384c-.494-.197-4.448-2.273-4.942-2.47.395-.297 1.087-1.088 1.581-2.274.1-.296 1.285-2.965 2.67-2.372 5.337 2.866 16.803 8.6 22.24 11.564.197.1.296-.197.098-.296l-.988-.494-.494-.297-18.781-9.686c.494 0 1.087-.198 1.581-.396 34.102-18.878 78.682-43.49 113.08-62.565l-9.984 38.943a26123.67 26123.67 0 0 0-72.157 39.733H225c-1.384.593-2.372-.197-2.372-.296-1.878-1.483-3.36 1.68-3.46 2.273-.692 1.384-1.186 1.977-1.779 2.372-.395.099-.593.198-.988 0-.495-.296-.89-.593-1.384-.198-.494.396-.79 1.187-.79 1.187a5.396 5.396 0 0 1-.89 1.284l-8.897 4.844c-12.256 6.622-49.225 26.983-61.482 33.605zm118.319 57.13c-4.745 3.755-13.147 4.447-20.066 0l-3.262-1.68c-22.438-11.664-71.86-36.473-94.793-48.333v-6.524l97.66 49.815c3.953 2.471 7.61 3.262 10.774 3.262 5.93 0 9.785-2.965 10.18-3.262l131.564-68.001c1.285-.692 2.175-1.483 2.768-2.274v.692l-.198 4.547c-.099 2.372-2.174 3.36-2.174 3.36l-3.064 1.582-129.39 66.815z" fill="#212121" fill-rule="nonzero"/></g></svg>