<svg xmlns="http://www.w3.org/2000/svg" width="161" height="61" viewBox="0 0 161 61" fill="none"><path fill-rule="evenodd" clip-rule="evenodd" d="M86.2823 51.9539L84.8766 59.9303H82.3706L85.7323 40.7687C85.8545 40.076 85.8952 39.6634 85.8545 39.531C85.8138 39.3985 85.6406 39.3119 85.335 39.2712L83.6847 39.0878L83.8375 38.2932H88.605L88.116 41.0132C88.8291 39.8926 89.5829 39.1082 90.3775 38.66C91.1721 38.2117 91.987 37.9876 92.8224 37.9876C94.0448 37.9876 95.0329 38.3595 95.7868 39.1031C96.5406 39.8468 97.0499 40.84 97.3148 42.0828C97.5797 43.3256 97.5695 44.711 97.2842 46.2391L97.162 46.9114C96.9175 48.3376 96.4438 49.56 95.7409 50.5787C95.038 51.5974 94.1976 52.3767 93.2197 52.9166C92.2417 53.4565 91.1925 53.7264 90.0719 53.7264C89.2366 53.7264 88.5031 53.5736 87.8715 53.268C87.2399 52.9624 86.7102 52.5244 86.2823 51.9539ZM87.9326 52.1526C88.4827 52.5091 89.1347 52.6874 89.8885 52.6874C91.1517 52.6874 92.1449 52.2035 92.8682 51.2357C93.5915 50.268 94.0957 48.9284 94.381 47.217L94.6866 45.475C95.0329 43.4173 94.982 41.8332 94.5338 40.7228C94.0855 39.6125 93.3725 39.0573 92.3945 39.0573C92.0074 39.0573 91.5643 39.1744 91.0651 39.4087C90.566 39.643 90.0362 40.0811 89.476 40.7228C88.9157 41.3646 88.3401 42.3069 87.7493 43.5497L86.5574 50.4259C86.9241 51.2205 87.3825 51.796 87.9326 52.1526ZM105.199 60.2359C106.809 60.2359 108.149 59.9048 109.218 59.2427C110.288 58.5805 111.123 57.7095 111.724 56.6297C112.325 55.5499 112.728 54.3886 112.931 53.1458L115.56 38.2932H113.054L111.342 47.981C110.303 49.7739 109.32 50.9913 108.393 51.633C107.466 52.2748 106.636 52.5957 105.902 52.5957C105.189 52.5957 104.68 52.2493 104.374 51.5566C104.069 50.8639 104.048 49.7434 104.313 48.1949L106.055 38.2932H101.165L101.013 39.1184L102.693 39.2712C102.999 39.3119 103.172 39.3985 103.213 39.531C103.254 39.6634 103.213 40.076 103.091 40.7687L101.777 48.2255C101.491 49.9165 101.66 51.2561 102.281 52.2442C102.902 53.2324 103.926 53.7264 105.352 53.7264C106.31 53.7264 107.262 53.4616 108.21 52.9319C109.157 52.4021 110.069 51.5363 110.945 50.3342L110.395 53.4514C110.008 55.6314 109.361 57.1543 108.454 58.0202C107.548 58.8861 106.463 59.3191 105.199 59.3191C104.242 59.3191 103.498 59.0084 102.969 58.387C102.439 57.7656 102.255 56.7214 102.418 55.2545L100.676 55.6212C100.554 56.9863 100.88 58.0966 101.654 58.9523C102.429 59.808 103.61 60.2359 105.199 60.2359ZM142.866 52.9319C142.265 53.3597 141.608 53.5736 140.894 53.5736C139.957 53.5736 139.265 53.2477 138.816 52.5957C138.368 51.9437 138.276 50.925 138.541 49.5396L139.764 43.5497C140.069 42.0013 140.054 40.8807 139.718 40.188C139.382 39.4953 138.857 39.1489 138.144 39.1489C137.431 39.1489 136.611 39.4596 135.684 40.0811C134.757 40.7025 133.784 41.8994 132.765 43.6719L131.054 53.4208H128.548L130.29 43.5497C130.575 42.0013 130.555 40.8807 130.229 40.188C129.903 39.4953 129.383 39.1489 128.67 39.1489C127.957 39.1489 127.132 39.4647 126.195 40.0963C125.258 40.7279 124.28 41.9504 123.261 43.7636L121.55 53.4208H119.044L121.244 40.7687C121.366 40.076 121.407 39.6634 121.366 39.531C121.325 39.3985 121.152 39.3119 120.847 39.2712L119.196 39.1184L119.349 38.2932H124.117L123.597 41.5021C124.494 40.2593 125.41 39.3629 126.348 38.8128C127.285 38.2627 128.242 37.9876 129.22 37.9876C130.361 37.9876 131.253 38.3187 131.894 38.9809C132.536 39.643 132.888 40.5446 132.949 41.6855C133.845 40.3612 134.777 39.4138 135.745 38.8433C136.713 38.2729 137.696 37.9876 138.694 37.9876C140.141 37.9876 141.185 38.4868 141.827 39.4851C142.468 40.4834 142.616 41.8281 142.27 43.5191L141.017 49.6313C140.813 50.6704 140.721 51.4191 140.742 51.8775C140.762 52.3359 140.966 52.5651 141.353 52.5651C141.699 52.5651 142.051 52.3869 142.407 52.0303C142.764 51.6738 143.074 51.0677 143.339 50.212L144.44 50.8843C143.991 51.8215 143.467 52.504 142.866 52.9319ZM152.63 53.7264C153.689 53.7264 154.759 53.4871 155.839 53.0083C156.919 52.5295 157.815 51.6687 158.528 50.4259L157.092 49.6619C156.827 50.4564 156.44 51.0778 155.93 51.5261C155.421 51.9743 154.881 52.2901 154.311 52.4735C153.74 52.6568 153.21 52.7485 152.722 52.7485C151.479 52.7485 150.587 52.2646 150.047 51.2969C149.508 50.3291 149.37 48.8775 149.635 46.9419L151.224 46.8197C152.895 46.6975 154.367 46.4275 155.64 46.0098C156.913 45.5922 157.912 45.0166 158.635 44.2832C159.358 43.5497 159.72 42.6736 159.72 41.6549C159.72 41.0233 159.537 40.4274 159.17 39.8671C158.803 39.3068 158.263 38.8535 157.55 38.5072C156.837 38.1608 155.961 37.9876 154.922 37.9876C153.577 37.9876 152.37 38.2831 151.3 38.8739C150.231 39.4647 149.345 40.2848 148.642 41.334C147.939 42.3833 147.465 43.6006 147.221 44.9861L147.098 45.6584C146.813 47.2679 146.849 48.6788 147.205 49.8911C147.562 51.1033 148.204 52.0456 149.131 52.7179C150.058 53.3903 151.224 53.7264 152.63 53.7264ZM150.002 44.5888L149.788 45.964L151.193 45.8723C152.864 45.7705 154.148 45.4954 155.044 45.0472C155.941 44.599 156.562 44.059 156.908 43.4275C157.255 42.7959 157.428 42.1643 157.428 41.5327C157.428 40.7381 157.199 40.1116 156.74 39.6532C156.282 39.1948 155.645 38.9656 154.83 38.9656C153.75 38.9656 152.762 39.4087 151.866 40.295C150.969 41.1812 150.348 42.6125 150.002 44.5888Z" fill="#072142"></path><path fill-rule="evenodd" clip-rule="evenodd" d="M84.102 34V2.5H78.432V34H84.102ZM6.636 34L8.19 30.388H19.53L21.084 34H27.174L14.826 5.776H12.936L0.545998 34H6.636ZM10.164 25.726L13.86 16.36L17.556 25.726H10.164ZM49.454 29.338C47.648 32.53 44.456 34.504 40.424 34.504C34.334 34.63 29.21 29.59 29.294 23.584C29.294 17.494 34.25 12.748 40.424 12.748C44.498 12.748 47.648 14.68 49.454 17.872L45.506 20.938C44.204 19.048 42.692 17.914 40.508 17.914C37.316 17.914 35.048 20.35 35.048 23.584C35.048 26.902 37.316 29.296 40.508 29.296C42.65 29.296 44.162 28.204 45.506 26.314L49.454 29.338ZM64.09 34.504C67.156 34.504 69.928 33.454 72.406 31.396L70.054 27.532C68.248 28.918 66.316 29.632 64.258 29.632C61.234 29.632 59.092 28.162 58.42 25.516H72.994C73.246 24.466 73.372 23.416 73.372 22.408C73.372 16.99 69.34 12.748 63.586 12.748C57.58 12.622 52.582 17.62 52.708 23.626C52.582 29.632 57.664 34.63 64.09 34.504ZM58.42 21.526H67.87C67.828 18.964 65.854 17.326 63.376 17.326C60.982 17.326 59.05 18.964 58.42 21.526ZM108.902 31.396C106.424 33.454 103.652 34.504 100.586 34.504C94.16 34.63 89.078 29.632 89.204 23.626C89.078 17.62 94.076 12.622 100.082 12.748C105.836 12.748 109.868 16.99 109.868 22.408C109.868 23.416 109.742 24.466 109.49 25.516H94.916C95.588 28.162 97.73 29.632 100.754 29.632C102.812 29.632 104.744 28.918 106.55 27.532L108.902 31.396ZM104.366 21.526H94.916C95.546 18.964 97.478 17.326 99.872 17.326C102.35 17.326 104.324 18.964 104.366 21.526ZM120.598 23.626V34H114.928V13.21H120.136V15.688C121.522 13.966 123.538 12.958 125.848 12.958C126.562 12.958 127.15 13.042 127.696 13.21V18.208H126.184C122.782 18.208 120.598 20.056 120.598 23.626ZM136.334 34.504C138.98 34.504 141.164 33.538 142.676 31.984V34H147.884V21.652C147.884 15.898 144.398 12.748 138.98 12.748C135.326 12.748 132.302 14.176 129.908 17.032L132.848 20.518C134.696 18.544 136.208 17.662 138.35 17.662C140.87 17.662 142.214 19.006 142.214 21.316V22.24H137.006C132.176 22.24 129.152 24.55 129.152 28.288C129.152 31.942 131.924 34.504 136.334 34.504ZM134.864 28.078C134.864 29.464 136.04 30.346 137.846 30.346C140.324 30.346 142.214 28.624 142.214 26.23V25.978H137.762C135.914 25.978 134.864 26.692 134.864 28.078Z" fill="#0F4C99"></path></svg>